<svg width="30" height="30" viewBox="0 0 30 30" fill="none" xmlns="http://www.w3.org/2000/svg">
<path d="M16.5 5C16.5 5 18.8335 5.21213 21.8033 8.18198C24.7731 11.1518 24.9853 13.4853 24.9853 13.4853" stroke="#B98A2E" stroke-width="1.5" stroke-linecap="round"/>
<path d="M17.207 8.53564C17.207 8.53564 18.197 8.81849 19.6819 10.3034C21.1668 11.7883 21.4497 12.7783 21.4497 12.7783" stroke="#B98A2E" stroke-width="1.5" stroke-linecap="round"/>
<path d="M18.1007 18.0272L17.5569 17.5107L18.1007 18.0272ZM18.5562 17.5477L19.1 18.0642H19.1L18.5562 17.5477ZM20.9728 17.2123L20.5987 17.8623H20.5987L20.9728 17.2123ZM22.8833 18.312L22.5092 18.962L22.8833 18.312ZM23.4217 21.7584L23.9655 22.2749L23.4217 21.7584ZM22.0011 23.254L21.4573 22.7375L22.0011 23.254ZM20.6763 23.9631L20.7499 24.7095L20.6763 23.9631ZM10.8154 19.4752L11.3592 18.9587L10.8154 19.4752ZM6.00289 9.96594L5.25397 10.0061L5.25397 10.0061L6.00289 9.96594ZM12.4775 11.5031L13.0213 12.0196H13.0213L12.4775 11.5031ZM12.6342 8.6931L13.2466 8.26012L12.6342 8.6931ZM11.3733 6.90961L10.7609 7.3426V7.3426L11.3733 6.90961ZM8.26145 6.60864L8.80524 7.12516L8.26145 6.60864ZM6.69185 8.26114L6.14806 7.74462L6.14806 7.74462L6.69185 8.26114ZM14.0631 16.0559L14.6069 15.5394L14.0631 16.0559ZM18.1007 18.0272L18.6445 18.5437L19.1 18.0642L18.5562 17.5477L18.0124 17.0312L17.5569 17.5107L18.1007 18.0272ZM20.9728 17.2123L20.5987 17.8623L22.5092 18.962L22.8833 18.312L23.2575 17.662L21.347 16.5623L20.9728 17.2123ZM23.4217 21.7584L22.8779 21.2419L21.4573 22.7375L22.0011 23.254L22.5449 23.7705L23.9655 22.2749L23.4217 21.7584ZM20.6763 23.9631L20.6026 23.2167C19.1676 23.3584 15.4233 23.2375 11.3592 18.9587L10.8154 19.4752L10.2716 19.9917C14.7009 24.655 18.9261 24.8895 20.7499 24.7095L20.6763 23.9631ZM10.8154 19.4752L11.3592 18.9587C7.48303 14.8778 6.83285 11.4356 6.75181 9.92574L6.00289 9.96594L5.25397 10.0061C5.35322 11.8554 6.1384 15.6403 10.2716 19.9917L10.8154 19.4752ZM12.1907 11.8051L12.7345 12.3216L13.0213 12.0196L12.4775 11.5031L11.9337 10.9866L11.6469 11.2886L12.1907 11.8051ZM12.6342 8.6931L13.2466 8.26012L11.9856 6.47663L11.3733 6.90961L10.7609 7.3426L12.0218 9.12608L12.6342 8.6931ZM8.26145 6.60864L7.71766 6.09213L6.14806 7.74462L6.69185 8.26114L7.23564 8.77765L8.80524 7.12516L8.26145 6.60864ZM12.1907 11.8051C11.6469 11.2886 11.6462 11.2893 11.6455 11.29C11.6453 11.2903 11.6446 11.291 11.6441 11.2915C11.6432 11.2925 11.6422 11.2936 11.6412 11.2946C11.6392 11.2967 11.6372 11.299 11.6351 11.3013C11.6309 11.3059 11.6265 11.3109 11.6218 11.3163C11.6124 11.327 11.6022 11.3393 11.5912 11.3532C11.5692 11.381 11.5443 11.4151 11.5182 11.4559C11.4659 11.5376 11.4092 11.6453 11.3611 11.7803C11.2634 12.0549 11.2102 12.4185 11.2767 12.8726C11.4074 13.7647 11.992 14.9644 13.5193 16.5724L14.0631 16.0559L14.6069 15.5394C13.1793 14.0363 12.8276 13.1106 12.7609 12.6551C12.7287 12.4354 12.7614 12.3196 12.7743 12.2832C12.7816 12.2628 12.7863 12.2571 12.7817 12.2644C12.7794 12.2679 12.7749 12.2745 12.7674 12.2841C12.7636 12.2888 12.759 12.2944 12.7536 12.3006C12.7509 12.3038 12.7479 12.3071 12.7448 12.3106C12.7432 12.3123 12.7415 12.3141 12.7398 12.3159C12.739 12.3169 12.7381 12.3178 12.7372 12.3187C12.7368 12.3192 12.7361 12.3199 12.7359 12.3202C12.7352 12.3209 12.7345 12.3216 12.1907 11.8051ZM14.0631 16.0559L13.5193 16.5724C15.0422 18.1757 16.1923 18.806 17.0698 18.9485C17.5201 19.0216 17.8846 18.9632 18.1606 18.8544C18.2955 18.8012 18.4022 18.7387 18.4823 18.6819C18.5223 18.6535 18.5556 18.6266 18.5824 18.6031C18.5959 18.5913 18.6077 18.5803 18.618 18.5703C18.6232 18.5654 18.628 18.5606 18.6324 18.5562C18.6346 18.554 18.6367 18.5518 18.6387 18.5497C18.6397 18.5487 18.6407 18.5477 18.6417 18.5467C18.6422 18.5462 18.6429 18.5454 18.6431 18.5452C18.6438 18.5444 18.6445 18.5437 18.1007 18.0272C17.5569 17.5107 17.5576 17.51 17.5583 17.5093C17.5585 17.509 17.5592 17.5083 17.5596 17.5078C17.5605 17.5069 17.5614 17.506 17.5623 17.5051C17.5641 17.5033 17.5658 17.5015 17.5674 17.4998C17.5708 17.4965 17.574 17.4933 17.577 17.4904C17.583 17.4846 17.5885 17.4796 17.5933 17.4754C17.6028 17.467 17.6099 17.4616 17.6145 17.4584C17.6239 17.4517 17.6229 17.454 17.6102 17.459C17.5909 17.4666 17.5 17.4987 17.3103 17.4679C16.9077 17.4025 16.0391 17.0472 14.6069 15.5394L14.0631 16.0559ZM11.3733 6.90961L11.9856 6.47663C10.9721 5.04305 8.94384 4.80119 7.71766 6.09213L8.26145 6.60864L8.80524 7.12516C9.32808 6.57471 10.2485 6.61795 10.7609 7.3426L11.3733 6.90961ZM6.00289 9.96594L6.75181 9.92574C6.73038 9.52644 6.90425 9.12654 7.23564 8.77765L6.69185 8.26114L6.14806 7.74462C5.61221 8.30877 5.20493 9.09246 5.25397 10.0061L6.00289 9.96594ZM22.0011 23.254L21.4573 22.7375C21.1783 23.0313 20.8864 23.1887 20.6026 23.2167L20.6763 23.9631L20.7499 24.7095C21.497 24.6357 22.1016 24.2373 22.5449 23.7705L22.0011 23.254ZM12.4775 11.5031L13.0213 12.0196C13.9889 11.001 14.0574 9.40678 13.2466 8.26012L12.6342 8.6931L12.0218 9.12608C12.444 9.72315 12.3793 10.5175 11.9337 10.9866L12.4775 11.5031ZM22.8833 18.312L22.5092 18.962C23.33 19.4345 23.4907 20.5968 22.8779 21.2419L23.4217 21.7584L23.9655 22.2749C25.2704 20.901 24.8904 18.6019 23.2575 17.662L22.8833 18.312ZM18.5562 17.5477L19.1 18.0642C19.4854 17.6584 20.086 17.5672 20.5987 17.8623L20.9728 17.2123L21.347 16.5623C20.2485 15.93 18.8861 16.1113 18.0124 17.0312L18.5562 17.5477Z" fill="#B98A2E"/>
</svg>
