<svg width="80" height="80" viewBox="0 0 80 80" fill="none" xmlns="http://www.w3.org/2000/svg">
<g clip-path="url(#clip0_1164_1562)">
<mask id="mask0_1164_1562" style="mask-type:luminance" maskUnits="userSpaceOnUse" x="0" y="0" width="80" height="80">
<path d="M0 7.62939e-06H80V80H0V7.62939e-06Z" fill="white"/>
</mask>
<g mask="url(#mask0_1164_1562)">
<path d="M56.9531 68.5938H50.4688C48.7428 68.5938 47.3438 69.9928 47.3438 71.7188V78.2031" stroke="#B98A2E" stroke-width="2" stroke-miterlimit="10" stroke-linecap="round" stroke-linejoin="round"/>
<path d="M57.1875 20.5605V8.4282C57.1875 6.70227 55.7884 5.3032 54.0625 5.3032H42.0312" stroke="#B98A2E" stroke-width="2" stroke-miterlimit="10" stroke-linecap="round" stroke-linejoin="round"/>
<path d="M31.752 78.4375H47.3441L57.1879 68.5938V59.5486" stroke="#B98A2E" stroke-width="2" stroke-miterlimit="10" stroke-linecap="round" stroke-linejoin="round"/>
<path d="M16.7187 5.30282H4.6875C2.96156 5.30282 1.5625 6.70188 1.5625 8.42782V75.3125C1.5625 77.0384 2.96156 78.4375 4.6875 78.4375H17.6883" stroke="#B98A2E" stroke-width="2" stroke-miterlimit="10" stroke-linecap="round" stroke-linejoin="round"/>
<path d="M39.3086 10.3125H19.4387C18.4392 10.3125 17.6289 9.50219 17.6289 8.50266V1.5625H41.1184V8.50266C41.1184 9.50219 40.3081 10.3125 39.3086 10.3125Z" stroke="#B98A2E" stroke-width="2" stroke-miterlimit="10" stroke-linecap="round" stroke-linejoin="round"/>
<path d="M12.0488 44.5016L14.852 47.3047L21.371 40.7856" stroke="#B98A2E" stroke-width="2" stroke-miterlimit="10" stroke-linecap="round" stroke-linejoin="round"/>
<path d="M29.3105 47.2832H36.6727" stroke="#B98A2E" stroke-width="2" stroke-miterlimit="10" stroke-linecap="round" stroke-linejoin="round"/>
<path d="M29.3105 40.4297H43.4587" stroke="#B98A2E" stroke-width="2" stroke-miterlimit="10" stroke-linecap="round" stroke-linejoin="round"/>
<path d="M12.0488 61.5426L14.852 64.3457L21.371 57.8266" stroke="#B98A2E" stroke-width="2" stroke-miterlimit="10" stroke-linecap="round" stroke-linejoin="round"/>
<path d="M29.3105 64.3242H40.019" stroke="#B98A2E" stroke-width="2" stroke-miterlimit="10" stroke-linecap="round" stroke-linejoin="round"/>
<path d="M29.3105 57.4707H43.3652" stroke="#B98A2E" stroke-width="2" stroke-miterlimit="10" stroke-linecap="round" stroke-linejoin="round"/>
<path d="M12.0488 27.4703L14.852 30.2734L21.371 23.7544" stroke="#B98A2E" stroke-width="2" stroke-miterlimit="10" stroke-linecap="round" stroke-linejoin="round"/>
<path d="M29.3105 30.252H36.3379" stroke="#B98A2E" stroke-width="2" stroke-miterlimit="10" stroke-linecap="round" stroke-linejoin="round"/>
<path d="M29.3105 23.3984H46.7115" stroke="#B98A2E" stroke-width="2" stroke-miterlimit="10" stroke-linecap="round" stroke-linejoin="round"/>
<path d="M49.6875 29.4359V39.4537C49.6875 46.3796 54.3511 52.4053 60.9375 54.2139C67.5239 52.4053 72.1875 46.3796 72.1875 39.4537V29.4359L60.9375 25.9236L49.6875 29.4359Z" stroke="#B98A2E" stroke-width="2" stroke-miterlimit="10" stroke-linecap="round" stroke-linejoin="round"/>
<path d="M60.9369 19.375L78.4375 24.8388V39.453C78.4375 49.7942 71.0941 58.6786 60.9375 60.625C50.7811 58.6786 43.4375 49.7942 43.4375 39.453V24.8388L60.9383 19.375" stroke="#B98A2E" stroke-width="2" stroke-miterlimit="10" stroke-linecap="round" stroke-linejoin="round"/>
<path d="M55.9375 39.6002L59.5375 43.2002L65.9375 36.8002" stroke="#B98A2E" stroke-width="2" stroke-miterlimit="10" stroke-linecap="round" stroke-linejoin="round"/>
</g>
</g>
<defs>
<clipPath id="clip0_1164_1562">
<rect width="80" height="80" fill="white"/>
</clipPath>
</defs>
</svg>
