<svg width="80" height="80" viewBox="0 0 80 80" fill="none" xmlns="http://www.w3.org/2000/svg">
<g clip-path="url(#clip0_1164_1481)">
<mask id="mask0_1164_1481" style="mask-type:luminance" maskUnits="userSpaceOnUse" x="0" y="0" width="80" height="80">
<path d="M0 7.62939e-06H80V80H0V7.62939e-06Z" fill="white"/>
</mask>
<g mask="url(#mask0_1164_1481)">
<path d="M31.9112 40H33.5286C34.2434 40 34.823 39.4205 34.823 38.7058V34.8228H40V38.7058C40 39.4205 40.5795 40 41.2942 40H45.1769V45.1772H41.2942C40.5795 45.1772 40 45.7566 40 46.4714V50.3542H34.823V46.4714C34.823 45.7566 34.2434 45.1772 33.5286 45.1772H7.64328C6.92828 45.1772 6.34875 45.7566 6.34875 46.4714V72.3567C6.34875 73.0716 6.92828 73.6511 7.64328 73.6511H33.5286C34.2434 73.6511 34.823 73.0716 34.823 72.3567V60.7083H40V72.3567C40 73.0716 40.5795 73.6511 41.2942 73.6511H72.3567C73.0716 73.6511 73.6511 73.0716 73.6511 72.3567V46.4714C73.6511 45.7566 73.0716 45.1772 72.3567 45.1772H55.5312V40H72.3567C73.0716 40 73.6511 39.4205 73.6511 38.7058V34.8245H78.8281V77.5339C78.8281 78.2486 78.2486 78.8281 77.5337 78.8281H2.46609C1.7514 78.8281 1.17188 78.2486 1.17188 77.5339V2.4661C1.17188 1.75142 1.7514 1.17188 2.46609 1.17188H63.5417" stroke="#B98A2E" stroke-width="2" stroke-miterlimit="10" stroke-linecap="round" stroke-linejoin="round"/>
<path d="M68.228 1.17188H77.5327C78.2473 1.17188 78.8269 1.75141 78.8269 2.4661V24.4713L73.6498 24.4714V7.64328C73.6498 6.92844 73.0703 6.34891 72.3555 6.34891H41.293C40.5783 6.34891 39.9987 6.92844 39.9987 7.64328V24.4688H34.8217V7.64328C34.8217 6.92844 34.2422 6.34891 33.5273 6.34891H7.64203C6.92719 6.34891 6.34766 6.92844 6.34766 7.64328V38.7058C6.34766 39.4205 6.92719 40 7.64203 40H27.2227" stroke="#B98A2E" stroke-width="2" stroke-miterlimit="10" stroke-linecap="round" stroke-linejoin="round"/>
<path d="M19.2905 45.1773V56.8259C19.2905 57.5406 18.7109 58.1201 17.9962 58.1201H6.34766" stroke="#B98A2E" stroke-width="2" stroke-miterlimit="10" stroke-linecap="round" stroke-linejoin="round"/>
<path d="M12.8203 49.0605V45.1777" stroke="#B98A2E" stroke-width="2" stroke-miterlimit="10" stroke-linecap="round" stroke-linejoin="round"/>
<path d="M21.8789 68.4746V64.5916C21.8789 62.4474 23.6173 60.709 25.7617 60.709C27.9061 60.709 29.6445 62.4474 29.6445 64.5916V68.4746" stroke="#B98A2E" stroke-width="2" stroke-miterlimit="10" stroke-linecap="round" stroke-linejoin="round"/>
<path d="M30.9402 73.6514H20.5859V69.7242C20.5859 69.0339 21.1456 68.4742 21.8359 68.4742H29.6902C30.3805 68.4742 30.9402 69.0339 30.9402 69.7242V73.6514Z" stroke="#B98A2E" stroke-width="2" stroke-miterlimit="10" stroke-linecap="round" stroke-linejoin="round"/>
<path d="M63.2969 45.1779V73.6514" stroke="#B98A2E" stroke-width="2" stroke-miterlimit="10" stroke-linecap="round" stroke-linejoin="round"/>
<path d="M73.6512 68.4746H63.2969V50.3548H73.6512V68.4746Z" stroke="#B98A2E" stroke-width="2" stroke-miterlimit="10" stroke-linecap="round" stroke-linejoin="round"/>
<path d="M68.4727 54.8843V56.1787" stroke="#B98A2E" stroke-width="2" stroke-miterlimit="10" stroke-linecap="round" stroke-linejoin="round"/>
<path d="M68.4727 62.65V63.9443" stroke="#B98A2E" stroke-width="2" stroke-miterlimit="10" stroke-linecap="round" stroke-linejoin="round"/>
<path d="M64.6348 11.5264H51.6035C50.9132 11.5264 50.3535 10.9667 50.3535 10.2764V6.34918H65.8848V10.2764C65.8848 10.9667 65.3251 11.5264 64.6348 11.5264Z" stroke="#B98A2E" stroke-width="2" stroke-miterlimit="10" stroke-linecap="round" stroke-linejoin="round"/>
<path d="M62.0456 21.8809H54.1914C53.5011 21.8809 52.9414 21.3212 52.9414 20.6309V16.7038H63.2956V20.6309C63.2956 21.3212 62.7361 21.8809 62.0456 21.8809Z" stroke="#B98A2E" stroke-width="2" stroke-miterlimit="10" stroke-linecap="round" stroke-linejoin="round"/>
<path d="M67.2239 27.0576H49.0156C48.3252 27.0576 47.7656 26.4979 47.7656 25.8076V17.9534C47.7656 17.2629 48.3252 16.7034 49.0156 16.7034H67.2239C67.9142 16.7034 68.4739 17.2629 68.4739 17.9534V25.8076C68.4739 26.4979 67.9142 27.0576 67.2239 27.0576Z" stroke="#B98A2E" stroke-width="2" stroke-miterlimit="10" stroke-linecap="round" stroke-linejoin="round"/>
<path d="M28.3952 32.2344H12.7754C12.0851 32.2344 11.5254 31.6748 11.5254 30.9844V6.34891H29.6452V30.9844C29.6452 31.6748 29.0855 32.2344 28.3952 32.2344Z" stroke="#B98A2E" stroke-width="2" stroke-miterlimit="10" stroke-linecap="round" stroke-linejoin="round"/>
<path d="M24.4686 6.34918H16.7031V10.2764C16.7031 10.9667 17.2627 11.5264 17.9531 11.5264H23.2186C23.9091 11.5264 24.4686 10.9667 24.4686 10.2764V6.34918Z" stroke="#B98A2E" stroke-width="2" stroke-miterlimit="10" stroke-linecap="round" stroke-linejoin="round"/>
<path d="M11.5254 16.7031H29.6452" stroke="#B98A2E" stroke-width="2" stroke-miterlimit="10" stroke-linecap="round" stroke-linejoin="round"/>
</g>
</g>
<defs>
<clipPath id="clip0_1164_1481">
<rect width="80" height="80" fill="white"/>
</clipPath>
</defs>
</svg>
