<svg width="144" height="41" viewBox="0 0 144 41" fill="none" xmlns="http://www.w3.org/2000/svg">
<path d="M138.078 0.270508H6.42632C3.38846 0.270508 0.925781 2.73268 0.925781 5.76992V34.7711C0.925781 37.8083 3.38846 40.2705 6.42632 40.2705H138.078C141.116 40.2705 143.578 37.8083 143.578 34.7711V5.76992C143.578 2.73268 141.116 0.270508 138.078 0.270508Z" fill="#1F1F1F"/>
<path d="M48.476 11.2467L47.653 13.7394H46.5947L49.2876 5.81543H50.5222L53.2268 13.7394H52.133L51.2865 11.2467H48.4763H48.476ZM51.0748 10.4473L50.2987 8.16729C50.1224 7.64943 50.0048 7.17934 49.8872 6.72098H49.8637C49.7461 7.19107 49.6167 7.67346 49.4639 8.15499L48.6878 10.4476H51.0748V10.4473Z" fill="white"/>
<path d="M54.5119 8.04932L55.6288 11.2464C55.8168 11.7642 55.9699 12.2343 56.0875 12.7041H56.123C56.2524 12.234 56.4169 11.7642 56.6052 11.2464L57.7104 8.04932H58.7924L56.5583 13.739H55.5707L53.4072 8.04932H54.5124H54.5119Z" fill="white"/>
<path d="M62.8747 13.7391L62.7923 13.0221H62.7568C62.4394 13.469 61.8282 13.8685 61.0166 13.8685C59.8645 13.8685 59.2764 13.0576 59.2764 12.2344C59.2764 10.8588 60.4992 10.1066 62.6981 10.1181V10.0013C62.6981 9.53038 62.5688 8.68405 61.4046 8.68405C60.8755 8.68405 60.3229 8.84857 59.9231 9.10721L59.6882 8.42569C60.1586 8.1204 60.8403 7.92041 61.5577 7.92041C63.298 7.92041 63.7212 9.1075 63.7212 10.2474V12.3752C63.7212 12.8691 63.7447 13.3517 63.8154 13.7394H62.8747V13.7391ZM62.7219 10.8359C61.5932 10.8119 60.3115 11.0122 60.3115 12.1166C60.3115 12.7867 60.7585 13.1045 61.2876 13.1045C62.0285 13.1045 62.4987 12.6344 62.6632 12.152C62.6987 12.0459 62.7222 11.9289 62.7222 11.8227V10.8359H62.7219Z" fill="white"/>
<path d="M66.5461 6.4509C66.5582 6.80311 66.2995 7.08551 65.8876 7.08551C65.5231 7.08551 65.2646 6.80311 65.2646 6.4509C65.2646 6.0987 65.5351 5.80371 65.9114 5.80371C66.2877 5.80371 66.5461 6.08611 66.5461 6.4509ZM65.394 13.7394V8.04971H66.4288V13.7394H65.394Z" fill="white"/>
<path d="M68.1475 5.39209H69.1823V13.7392H68.1475V5.39209Z" fill="white"/>
<path d="M74.0752 13.7391L73.9928 13.0221H73.9573C73.6399 13.469 73.0287 13.8685 72.2171 13.8685C71.0649 13.8685 70.4766 13.0576 70.4766 12.2344C70.4766 10.8588 71.6994 10.1066 73.8983 10.1181V10.0013C73.8983 9.53038 73.769 8.68405 72.6048 8.68405C72.0757 8.68405 71.5231 8.84857 71.1233 9.10721L70.8884 8.42569C71.3588 8.1204 72.0405 7.92041 72.7579 7.92041C74.4982 7.92041 74.9214 9.1075 74.9214 10.2474V12.3752C74.9214 12.8691 74.9449 13.3517 75.0156 13.7394H74.0749L74.0752 13.7391ZM73.9224 10.8359C72.7937 10.8119 71.5119 11.0122 71.5119 12.1166C71.5119 12.7867 71.9589 13.1045 72.4881 13.1045C73.229 13.1045 73.6992 12.6344 73.8637 12.152C73.8992 12.0459 73.9227 11.9289 73.9227 11.8227V10.8359H73.9224Z" fill="white"/>
<path d="M76.5469 13.7392C76.5703 13.3515 76.5938 12.7753 76.5938 12.2697V5.39209H77.6169V8.96652H77.6403C78.0049 8.33192 78.6634 7.9202 79.5806 7.9202C80.9917 7.9202 81.991 9.09556 81.9793 10.8234C81.9793 12.8574 80.6978 13.8682 79.4278 13.8682C78.6047 13.8682 77.9463 13.5504 77.523 12.7982H77.4878L77.4406 13.7392H76.5472H76.5469ZM77.6169 11.458C77.6169 11.5882 77.6403 11.7175 77.6638 11.8343C77.8638 12.5521 78.4634 13.0451 79.216 13.0451C80.2978 13.0451 80.9445 12.1636 80.9445 10.8589C80.9445 9.71872 80.3567 8.74249 79.2512 8.74249C78.5458 8.74249 77.8873 9.22488 77.6758 10.0128C77.6521 10.1307 77.6169 10.2712 77.6169 10.436V11.4583V11.458Z" fill="white"/>
<path d="M83.2881 5.39209H84.3229V13.7392H83.2881V5.39209Z" fill="white"/>
<path d="M86.6409 11.0818C86.6647 12.4812 87.5581 13.0574 88.5929 13.0574C89.3338 13.0574 89.7805 12.9281 90.1686 12.7636L90.3448 13.5035C89.9803 13.668 89.357 13.8568 88.4515 13.8568C86.6996 13.8568 85.6533 12.7043 85.6533 10.9879C85.6533 9.27153 86.6647 7.91992 88.3225 7.91992C90.1803 7.91992 90.6742 9.55392 90.6742 10.6002C90.6742 10.8117 90.6508 10.9765 90.639 11.0818H86.6412H86.6409ZM89.6746 10.3419C89.6864 9.68325 89.4042 8.66096 88.24 8.66096C87.1935 8.66096 86.7351 9.62488 86.6526 10.3419H89.6746Z" fill="white"/>
<path d="M99.6028 10.8472C99.6028 12.9513 98.1447 13.8682 96.7691 13.8682C95.2286 13.8682 94.041 12.7398 94.041 10.941C94.041 9.03606 95.2873 7.91992 96.863 7.91992C98.4386 7.91992 99.6028 9.10701 99.6028 10.8472ZM95.0875 10.9055C95.0875 12.1518 95.805 13.0929 96.816 13.0929C97.8271 13.0929 98.5448 12.1633 98.5448 10.8826C98.5448 9.91872 98.0626 8.69529 96.8395 8.69529C95.6164 8.69529 95.0875 9.82373 95.0875 10.9055Z" fill="white"/>
<path d="M100.912 9.5894C100.912 9.00172 100.9 8.51933 100.865 8.04925H101.782L101.841 8.98913H101.865C102.147 8.44838 102.805 7.91992 103.746 7.91992C104.534 7.91992 105.757 8.39001 105.757 10.3416V13.7389H104.722V10.4595C104.722 9.54248 104.381 8.77769 103.405 8.77769C102.723 8.77769 102.194 9.26008 102.017 9.83632C101.97 9.96564 101.947 10.1416 101.947 10.3179V13.7389H100.912V9.5894H100.912Z" fill="white"/>
<path d="M111.182 6.41533V8.04933H112.664V8.837H111.182V11.905C111.182 12.6106 111.382 13.0106 111.958 13.0106C112.229 13.0106 112.429 12.9751 112.558 12.9396L112.605 13.715C112.405 13.7974 112.088 13.8566 111.688 13.8566C111.206 13.8566 110.818 13.7035 110.571 13.4211C110.277 13.1158 110.171 12.6103 110.171 11.9402V8.83672H109.289V8.04904H110.171V6.68485L111.182 6.41504L111.182 6.41533Z" fill="white"/>
<path d="M113.829 5.39209H114.864V8.94249H114.887C115.052 8.64865 115.311 8.39029 115.628 8.21404C115.934 8.03779 116.298 7.9202 116.687 7.9202C117.451 7.9202 118.674 8.39029 118.674 10.3536V13.7392H117.639V10.4712C117.639 9.5542 117.298 8.77797 116.322 8.77797C115.652 8.77797 115.123 9.24892 114.935 9.81285C114.876 9.95362 114.864 10.1067 114.864 10.3067V13.7392H113.829V5.39209Z" fill="white"/>
<path d="M120.935 11.0818C120.959 12.4812 121.852 13.0574 122.887 13.0574C123.628 13.0574 124.074 12.9281 124.463 12.7636L124.639 13.5035C124.274 13.668 123.651 13.8568 122.745 13.8568C120.994 13.8568 119.947 12.7043 119.947 10.9879C119.947 9.27153 120.959 7.91992 122.616 7.91992C124.474 7.91992 124.968 9.55392 124.968 10.6002C124.968 10.8117 124.945 10.9765 124.933 11.0818H120.935H120.935ZM123.969 10.3419C123.98 9.68325 123.698 8.66096 122.534 8.66096C121.487 8.66096 121.029 9.62488 120.947 10.3419H123.969Z" fill="white"/>
<path d="M49.0557 27.9769L47.6033 32.3748H45.7363L50.4874 18.394H52.6657L57.4374 32.3748H55.5077L54.0139 27.9769H49.0557ZM53.6407 26.5666L52.2711 22.5436C51.9603 21.63 51.7526 20.8006 51.5451 19.9917H51.5036C51.2961 20.8209 51.0677 21.6721 50.7985 22.5215L49.4288 26.5663H53.6404L53.6407 26.5666Z" fill="white"/>
<path d="M59.3737 25.6122C59.3737 24.327 59.3322 23.2901 59.291 22.3359H60.9296L61.0129 24.0569H61.0544C61.8016 22.8341 62.9838 22.1079 64.623 22.1079C67.05 22.1079 68.8755 24.1616 68.8755 27.2099C68.8755 30.819 66.6766 32.6026 64.3116 32.6026C62.9838 32.6026 61.8222 32.0215 61.2204 31.027H61.1789V36.482H59.374V25.6122H59.3737ZM61.1786 28.2891C61.1786 28.5578 61.2201 28.8076 61.2613 29.0356C61.5933 30.3005 62.693 31.172 64 31.172C65.9294 31.172 67.0495 29.5947 67.0495 27.2926C67.0495 25.2812 65.9915 23.5585 64.0621 23.5585C62.8175 23.5585 61.6557 24.452 61.3031 25.82C61.2407 26.048 61.1786 26.3181 61.1786 26.5664V28.2891Z" fill="white"/>
<path d="M71.1843 25.6122C71.1843 24.327 71.1428 23.2901 71.1016 22.3359H72.7405L72.8232 24.0569H72.8647C73.6119 22.8341 74.7941 22.1079 76.4333 22.1079C78.8603 22.1079 80.6858 24.1616 80.6858 27.2099C80.6858 30.819 78.4868 32.6026 76.1219 32.6026C74.7941 32.6026 73.6325 32.0215 73.0307 31.027H72.9892V36.482H71.1843V25.6122ZM72.9892 28.2891C72.9892 28.5578 73.0307 28.8076 73.0724 29.0356C73.4044 30.3005 74.5036 31.172 75.8106 31.172C77.7399 31.172 78.86 29.5947 78.86 27.2926C78.86 25.2812 77.802 23.5585 75.8726 23.5585C74.6281 23.5585 73.4662 24.452 73.1137 25.82C73.0513 26.048 72.9892 26.3181 72.9892 26.5664V28.2891Z" fill="white"/>
<path d="M87.2087 30.176C88.0177 30.6741 89.2002 31.0895 90.4453 31.0895C92.2917 31.0895 93.3703 30.1133 93.3703 28.7031C93.3703 27.3958 92.6237 26.6493 90.7355 25.9249C88.4538 25.116 87.0427 23.9338 87.0427 21.9628C87.0427 19.784 88.8476 18.166 91.5651 18.166C92.9968 18.166 94.0339 18.4988 94.6564 18.8518L94.1584 20.3245C93.702 20.0744 92.7685 19.6607 91.503 19.6607C89.5942 19.6607 88.8682 20.8006 88.8682 21.755C88.8682 23.0623 89.7187 23.7041 91.6484 24.4522C94.0133 25.3644 95.2164 26.5043 95.2164 28.558C95.2164 30.7164 93.6193 32.5825 90.3205 32.5825C88.9721 32.5825 87.4992 32.1874 86.752 31.6907L87.2084 30.1757L87.2087 30.176Z" fill="white"/>
<path d="M99.7654 19.4534V22.3363H102.38V23.7262H99.7654V29.1393C99.7654 30.3839 100.119 31.09 101.135 31.09C101.612 31.09 101.965 31.0276 102.193 30.965L102.276 32.3329C101.923 32.4782 101.363 32.5829 100.658 32.5829C99.8075 32.5829 99.123 32.3128 98.6871 31.8144C98.1686 31.2757 97.982 30.3839 97.982 29.2016V23.7262H96.4258V22.3363H97.982V19.9295L99.7657 19.4531L99.7654 19.4534Z" fill="white"/>
<path d="M113.399 27.2726C113.399 30.9846 110.826 32.6026 108.399 32.6026C105.681 32.6026 103.586 30.6115 103.586 27.4379C103.586 24.0787 105.785 22.1079 108.565 22.1079C111.345 22.1079 113.399 24.2023 113.399 27.2726ZM105.432 27.3756C105.432 29.5744 106.697 31.2347 108.482 31.2347C110.266 31.2347 111.532 29.5947 111.532 27.3349C111.532 25.6343 110.681 23.4758 108.524 23.4758C106.367 23.4758 105.433 25.4669 105.433 27.3756H105.432Z" fill="white"/>
<path d="M115.708 25.4669C115.708 24.2847 115.687 23.2695 115.625 22.3357H117.222L117.285 24.3067H117.367C117.824 22.9574 118.923 22.1079 120.147 22.1079C120.355 22.1079 120.5 22.1282 120.666 22.1703V23.8913C120.479 23.8489 120.292 23.8289 120.044 23.8289C118.757 23.8289 117.845 24.8034 117.596 26.173C117.554 26.4214 117.513 26.7118 117.513 27.0225V32.3746H115.708V25.4669Z" fill="white"/>
<path d="M123.305 27.6866C123.347 30.1557 124.923 31.1723 126.749 31.1723C128.055 31.1723 128.844 30.9443 129.529 30.6539L129.84 31.9594C129.197 32.2498 128.097 32.5826 126.5 32.5826C123.409 32.5826 121.562 30.5492 121.562 27.5209C121.562 24.4927 123.347 22.1079 126.272 22.1079C129.55 22.1079 130.421 24.9908 130.421 26.8368C130.421 27.2102 130.38 27.5006 130.359 27.6863H123.305L123.305 27.6866ZM128.658 26.381C128.678 25.2191 128.18 23.4137 126.126 23.4137C124.28 23.4137 123.471 25.1161 123.326 26.381H128.658Z" fill="white"/>
<path d="M35.8956 25.5054C36.2587 25.5689 36.4756 25.948 36.3526 26.2954C35.0711 29.9119 32.8223 32.7184 30.264 32.7184C29.5039 32.7184 28.7701 32.5021 28.0805 32.1104C26.6479 31.2949 24.9174 31.2949 23.4851 32.1104C22.7951 32.5021 22.0645 32.7184 21.3044 32.7184C17.3172 32.7184 14.084 25.9057 14.084 19.8355C14.084 13.7653 17.3172 10.7373 21.3044 10.7373C22.304 10.7373 23.2541 10.9828 24.1195 11.4446C25.1632 12.0057 26.4026 12.0057 27.446 11.4474C28.3114 10.9828 29.2643 10.7373 30.264 10.7373C32.6426 10.7373 34.7552 11.8168 36.0681 13.9781C36.2839 14.3332 36.0799 14.7895 35.6738 14.878C33.2382 15.4084 31.4187 17.5743 31.4187 20.1685C31.4187 22.7627 33.3506 25.0605 35.8956 25.5054Z" fill="white"/>
<path d="M29.4684 8.58894C28.3847 10.0507 26.8359 10.8807 25.4343 10.897C25.0422 9.55143 25.3842 7.8273 26.4676 6.36554C27.5514 4.90378 29.1016 4.0749 30.5032 4.05859C30.8953 5.40419 30.5519 7.12718 29.4682 8.58894H29.4684Z" fill="white"/>
</svg>
