<svg width="173" height="113" viewBox="0 0 173 113" fill="none" xmlns="http://www.w3.org/2000/svg">
<rect x="33.1963" y="21.1396" width="107.709" height="70.7207" rx="35.3604" fill="#003CA6"/>
<path d="M66.741 37.725C69.6433 36.5188 73.1324 36.8304 75.7594 38.5649C77.7043 39.8055 79.1554 41.7727 79.8132 43.9787C80.4628 46.1463 80.3009 48.5183 79.4489 50.6069C77.4999 50.615 75.5489 50.5947 73.5999 50.619C74.4418 49.8257 75.1178 48.8158 75.302 47.6541C75.64 45.8812 74.881 43.9686 73.4441 42.8838C72.0253 41.7606 69.965 41.544 68.3419 42.3374C66.5872 43.1469 65.4093 45.0635 65.5328 46.9983C65.547 48.4009 66.2816 49.7002 67.3097 50.621C65.3567 50.5927 63.4057 50.613 61.4527 50.6089C60.5885 48.5162 60.4286 46.1301 61.0904 43.9605C61.906 41.1716 64.0473 38.8138 66.741 37.725Z" fill="#9DABDC"/>
<path d="M60.6308 66.0146C60.5802 64.9682 60.732 63.9259 60.987 62.914C62.7316 62.916 64.4781 62.9201 66.2227 62.912C65.7046 63.8551 65.3525 64.9257 65.4678 66.0146C65.5872 67.664 66.6113 69.1981 68.0705 69.9672C69.6633 70.8354 71.7398 70.712 73.2131 69.6494C74.6177 68.6719 75.4536 66.9354 75.2896 65.2253C75.2552 64.3975 74.9091 63.6325 74.5307 62.912C76.2773 62.9181 78.0239 62.916 79.7725 62.912C80.4626 65.3244 80.2076 67.9959 79.0176 70.21C77.5725 72.9949 74.7047 74.9904 71.5819 75.3345C69.1128 75.6401 66.5283 74.9864 64.5429 73.4766C62.2033 71.7502 60.6955 68.9269 60.6308 66.0146Z" fill="#9DABDC"/>
<path d="M111.981 64.1282C112.798 63.6506 113.786 63.8429 114.683 63.8914C114.628 64.1869 114.573 64.4844 114.521 64.7799C113.974 64.6726 113.426 64.4966 112.865 64.5492C112.42 64.5998 112.005 64.958 111.999 65.4255C112.369 66.3261 113.547 66.4617 113.999 67.3016C114.316 67.9695 114.185 68.8782 113.584 69.3478C112.762 70.046 111.562 69.961 110.586 69.7019C110.469 69.4651 110.528 69.1757 110.491 68.9207C111.285 69.0766 112.181 69.364 112.934 68.9167C113.402 68.6698 113.535 67.9574 113.116 67.6032C112.531 67.1094 111.744 66.82 111.347 66.1298C110.953 65.4397 111.303 64.4966 111.981 64.1282Z" fill="#9DABDC"/>
<path d="M101.276 69.8033C101.653 67.828 102.088 65.8648 102.497 63.8956C103.296 63.9341 104.16 63.756 104.911 64.096C105.834 64.7011 105.624 66.2413 104.666 66.7189C105.852 67.5022 105.154 69.4835 103.877 69.7244C103.017 69.8458 102.143 69.7567 101.276 69.8033ZM103.201 64.606C103.076 65.1828 102.952 65.7616 102.837 66.3425C103.507 66.3627 104.515 66.2858 104.553 65.4095C104.751 64.5615 103.741 64.6465 103.201 64.606ZM102.837 67.0529C102.677 67.7187 102.531 68.3866 102.396 69.0585C102.902 69.0039 103.476 69.1152 103.922 68.8055C104.415 68.4817 104.387 67.7369 104.108 67.2816C103.743 67.0265 103.258 67.1115 102.837 67.0529Z" fill="#9DABDC"/>
<path d="M106.859 65.6725C107.406 65.3831 108.197 65.292 108.659 65.7838C109.09 66.225 109.043 66.8889 109.116 67.4556C108.288 67.4556 107.465 67.4556 106.639 67.4616C106.689 67.9818 106.578 68.6517 107.066 69.0018C107.556 69.186 108.096 69.1151 108.61 69.1435C108.61 69.2831 108.61 69.5624 108.61 69.702C107.904 69.9065 107.082 70.0481 106.422 69.6373C105.777 69.2001 105.681 68.3238 105.793 67.6134C105.9 66.8767 106.153 66.0429 106.859 65.6725ZM106.774 66.8059C107.311 66.8261 107.847 66.8282 108.385 66.814C108.191 66.6096 108.157 66.1603 107.817 66.1542C107.333 66.0449 107.052 66.5043 106.774 66.8059Z" fill="#9DABDC"/>
<path d="M121.428 67.4818C121.499 66.316 122.529 65.1563 123.773 65.4802C124.633 65.7048 124.686 66.7269 124.739 67.4534C123.915 67.4575 123.093 67.4554 122.272 67.4595C122.32 67.9655 122.193 68.6232 122.652 68.9794C123.16 69.202 123.743 69.1069 124.285 69.1514C124.259 70.1209 123.055 69.9367 122.395 69.8052C121.405 69.5259 121.27 68.3379 121.428 67.4818ZM122.399 66.7936C122.917 66.8159 123.437 66.8281 123.958 66.8361C123.846 66.5892 123.735 66.3423 123.626 66.0954C123.114 66.1339 122.676 66.3565 122.399 66.7936Z" fill="#9DABDC"/>
<path d="M115.39 65.6746C115.68 65.6746 115.969 65.6725 116.261 65.6725C116.115 66.7897 115.696 67.8846 115.759 69.02C116.23 69.3742 116.678 68.8075 116.896 68.427C117.309 67.5669 117.341 66.5914 117.538 65.6725C117.819 65.6725 118.102 65.6725 118.386 65.6746C118.153 67.0812 117.888 68.4837 117.639 69.8883C117.297 69.8417 116.959 69.7931 116.621 69.7425C116.19 69.8154 115.736 69.9834 115.305 69.8417C114.876 69.6171 114.828 69.0605 114.886 68.6355C115.004 67.6397 115.241 66.6642 115.39 65.6746Z" fill="#9DABDC"/>
<path d="M119.538 65.6442C119.876 65.6786 120.214 65.711 120.554 65.7535C120.9 65.6746 121.244 65.5936 121.592 65.5208C121.592 65.794 121.592 66.0652 121.596 66.3384C121.05 66.4821 120.335 66.6096 120.153 67.2431C119.898 68.0971 119.829 68.9937 119.631 69.8619C119.421 69.8619 118.998 69.8599 118.787 69.8599C119.024 68.4513 119.297 67.0508 119.538 65.6442Z" fill="#9DABDC"/>
<path d="M51.552 49.0242C53.5981 48.2349 55.8608 48.4859 57.9514 48.9473C57.998 50.0281 58.0142 51.1129 58.0425 52.1956C57.9069 52.1956 57.6357 52.1916 57.5001 52.1916C57.3362 51.6451 57.2006 51.0683 56.8505 50.6049C55.875 49.2448 53.5981 49.0404 52.4809 50.3276C51.6572 51.3031 51.3354 52.6247 51.3617 53.8795C51.3881 54.944 51.2646 56.0349 51.5844 57.0691C51.9487 58.3947 52.906 59.6617 54.2802 60.028C55.6078 60.2749 56.9436 59.7993 58.0891 59.1537C58.087 59.6333 58.083 60.115 58.087 60.5947C56.4619 61.2484 54.6566 61.3779 52.9343 61.1168C51.6572 60.9165 50.5481 60.0563 49.9349 58.9311C48.8562 57.0003 48.8704 54.6648 49.2387 52.5417C49.518 51.1534 50.1434 49.595 51.552 49.0242Z" fill="white"/>
<path d="M83.5479 48.6802C86.7578 48.6741 89.9656 48.6923 93.1734 48.6579C93.1714 49.6536 93.1714 50.6494 93.1734 51.6431C93.0317 51.6431 92.7444 51.6451 92.6007 51.6451C92.4388 51.0784 92.2789 50.449 91.7486 50.109C91.0949 49.5605 90.2024 49.7002 89.4171 49.6779C89.4131 52.7603 89.4212 55.8406 89.4111 58.9229C89.4252 59.3662 89.3766 59.8822 89.7106 60.2324C90.0911 60.457 90.5464 60.4692 90.9735 60.5339C90.9735 60.6716 90.9715 60.9448 90.9715 61.0824C89.1986 61.0784 87.4236 61.0844 85.6487 61.0804C85.6507 60.9468 85.6548 60.6796 85.6568 60.5481C86.268 60.4813 87.203 60.368 87.1605 59.5402C87.2273 56.2555 87.1706 52.9667 87.1889 49.6799C86.3915 49.7002 85.4848 49.5605 84.825 50.1191C84.319 50.4612 84.2178 51.0946 84.0903 51.6451C83.9547 51.6451 83.6815 51.6451 83.5459 51.6451C83.5459 50.6555 83.5459 49.6678 83.5479 48.6802Z" fill="white"/>
<path d="M121.888 49.3886C122.043 49.3846 122.353 49.3765 122.509 49.3724C122.513 50.4127 122.511 51.453 122.511 52.4932C123.3 52.4932 124.09 52.4932 124.879 52.4932C124.877 52.7665 124.875 53.0397 124.875 53.3129C124.087 53.3149 123.302 53.3149 122.517 53.3149C122.507 55.187 122.511 57.0611 122.511 58.9332C122.495 59.3723 122.616 59.8945 123.043 60.109C123.555 60.3944 124.154 60.1859 124.697 60.1272C124.62 60.4511 124.739 60.9449 124.342 61.0886C123.723 61.3294 123.033 61.3355 122.383 61.2444C121.297 61.0785 120.388 60.0686 120.44 58.9534C120.432 57.0732 120.438 55.1931 120.44 53.3149C119.975 53.3149 119.51 53.3149 119.046 53.3169C119.044 53.1813 119.042 52.9102 119.042 52.7746C119.732 52.7381 120.455 52.56 120.953 52.046C121.643 51.3457 121.809 50.3277 121.888 49.3886Z" fill="white"/>
<path d="M60.323 53.1105C61.2155 52.4082 62.4035 52.2746 63.5024 52.2422C64.395 52.22 65.3745 52.5195 65.8866 53.2987C66.5342 54.2337 66.3116 55.4298 66.35 56.4964C66.3824 57.6277 66.2731 58.7672 66.4067 59.8904C66.601 60.5644 67.4328 60.4348 67.9671 60.3701C67.9448 60.5219 67.9044 60.8254 67.8841 60.9752C67.0564 61.2606 66.1578 61.3436 65.2956 61.1938C64.7815 61.0784 64.5205 60.5826 64.3383 60.1373C63.4195 61.1452 61.7538 61.6269 60.5334 60.9104C59.2422 60.1495 59.1552 58.0892 60.3311 57.1865C61.4725 56.3466 62.958 56.2819 64.3201 56.209C64.3181 55.3428 64.4476 54.4321 64.1217 53.6083C63.8546 52.9384 62.8568 52.8615 62.4298 53.41C62.1201 53.8492 62.2132 54.4604 61.8793 54.8874C61.3774 55.5088 60.2339 55.3833 59.9222 54.6324C59.6227 54.1123 59.8575 53.4424 60.323 53.1105ZM61.766 58.1883C61.2033 59.1983 62.4622 60.5664 63.5004 59.9451C64.4941 59.3136 64.3059 57.9839 64.3201 56.9761C63.3911 57.0914 62.2416 57.2614 61.766 58.1883Z" fill="white"/>
<path d="M70.0821 52.7765C71.4259 52.0641 73.0471 52.1855 74.4739 52.56C74.4597 53.3351 74.4638 54.1123 74.4597 54.8894C74.3302 54.8692 74.0691 54.8307 73.9396 54.8105C73.5935 54.1123 73.3021 53.159 72.4095 53.0133C71.5676 52.8069 70.4626 53.6205 70.9078 54.5292C71.5838 55.699 73.1321 55.7981 74.1136 56.6239C75.3927 57.484 75.5142 59.6475 74.1946 60.5259C72.6888 61.5277 70.7358 61.3354 69.0601 60.9448C69.0378 60.0746 68.9892 59.2043 68.9346 58.3361C69.0823 58.3401 69.3758 58.3523 69.5215 58.3563C69.6449 58.9513 69.7603 59.6131 70.246 60.03C70.9341 60.619 72.0695 60.7303 72.8022 60.1636C73.3506 59.6617 73.0572 58.7854 72.6625 58.2753C72.2557 57.7026 71.4968 57.6803 70.92 57.3727C69.9566 56.8971 69.058 56.0289 68.9568 54.9056C68.8455 54.0455 69.309 53.1671 70.0821 52.7765Z" fill="white"/>
<path d="M76.9678 53.582C77.5385 52.7785 78.4958 52.3049 79.4713 52.2523C80.6168 52.1734 81.9162 52.3616 82.7298 53.2521C83.3592 53.9382 83.4462 54.9137 83.432 55.8022C81.7057 55.8163 79.9793 55.7981 78.255 55.8123C78.1821 57.1865 78.6719 58.5931 79.611 59.601C80.6047 60.5522 82.1104 60.3255 83.3106 59.9653C83.3045 60.2182 83.2985 60.4712 83.2944 60.7242C81.6531 61.467 79.6434 61.4305 78.0688 60.54C75.9194 59.014 75.5167 55.7172 76.9678 53.582ZM78.8966 53.4929C78.4877 53.8795 78.3623 54.4482 78.2145 54.9663C79.3418 54.9764 80.4671 54.9764 81.5944 54.9663C81.4183 54.3915 81.309 53.7297 80.8172 53.329C80.2667 52.8595 79.3843 53.0011 78.8966 53.4929Z" fill="white"/>
<path d="M99.1409 52.2847C99.6165 52.1248 100.212 52.2645 100.473 52.7198C100.845 53.2683 100.558 54.1224 99.9059 54.2985C99.404 54.4907 98.9527 54.092 98.4872 53.9645C97.6149 54.3673 97.1615 55.3731 97.204 56.3041C97.2142 57.4496 97.1575 58.6012 97.2324 59.7467C97.2911 60.4125 98.0217 60.5421 98.5479 60.6473C98.5459 60.7566 98.5438 60.9732 98.5418 61.0824C96.9774 61.0541 95.4089 61.1351 93.8464 61.046C93.8222 60.9468 93.7716 60.7465 93.7453 60.6473C94.2694 60.5401 95.0567 60.4814 95.1215 59.7892C95.2389 58.0892 95.1316 56.381 95.1761 54.6769C95.1478 54.3005 95.247 53.8512 94.9677 53.5456C94.6317 53.2521 94.148 53.331 93.7412 53.2663C93.7695 53.1489 93.8282 52.9141 93.8566 52.7967C94.9535 52.5579 96.0767 52.4608 97.1879 52.2928C97.1879 52.9263 97.1899 53.5597 97.1838 54.1932C97.6351 53.3978 98.1917 52.5215 99.1409 52.2847Z" fill="white"/>
<path d="M101.515 52.7259C102.626 52.5539 103.743 52.4142 104.86 52.2685C104.86 54.2215 104.858 56.1746 104.858 58.1276C104.866 58.6983 104.917 59.35 105.366 59.7629C105.803 60.1778 106.508 59.9997 106.918 59.6333C107.811 58.8724 108.195 57.6581 108.151 56.5085C108.127 55.6747 108.21 54.8327 108.1 54.003C107.953 53.3796 107.198 53.3331 106.702 53.1671C106.742 53.078 106.823 52.8959 106.864 52.8069C107.936 52.5559 109.039 52.4527 110.126 52.2665C110.144 54.6182 110.1 56.972 110.144 59.3237C110.153 60.0138 110.905 60.1798 111.45 60.2648C111.448 60.3923 111.444 60.6453 111.442 60.7728C110.355 60.9327 109.268 61.1006 108.181 61.2504C108.179 60.5643 108.173 59.8762 108.189 59.1901C107.744 60.0867 107.054 61.0217 105.996 61.1836C105.305 61.2281 104.563 61.301 103.917 61.0015C103.243 60.6473 102.927 59.8641 102.891 59.1375C102.84 57.4577 102.923 55.7759 102.861 54.0981C102.822 53.416 102.051 53.2784 101.513 53.2116C101.513 53.0902 101.513 52.8473 101.515 52.7259Z" fill="white"/>
<path d="M113.488 52.8209C114.83 52.0478 116.473 52.2077 117.928 52.5295C117.951 53.3006 117.947 54.0737 117.945 54.8468C117.807 54.8468 117.532 54.8448 117.394 54.8428C117.119 54.1081 116.789 53.1873 115.915 53.0193C115.028 52.7825 113.903 53.673 114.421 54.606C115.154 55.7029 116.637 55.8142 117.607 56.6339C118.916 57.5264 118.975 59.781 117.562 60.6047C116.077 61.4851 114.172 61.3819 112.571 60.9144C112.472 60.0623 112.456 59.2022 112.405 58.3461C112.549 58.3441 112.836 58.338 112.98 58.3339C113.124 59.1334 113.419 60.0522 114.261 60.3598C115.01 60.6573 116.234 60.631 116.55 59.7324C116.72 58.8865 116.133 57.9433 115.297 57.7187C114.14 57.3807 112.992 56.6481 112.559 55.4722C112.171 54.5149 112.573 53.3168 113.488 52.8209Z" fill="white"/>
</svg>
