<svg width="144" height="41" viewBox="0 0 144 41" fill="none" xmlns="http://www.w3.org/2000/svg">
<path d="M139.712 0.270508H4.09692C2.15354 0.270508 0.578125 1.8456 0.578125 3.78857V36.7524C0.578125 38.6954 2.15354 40.2705 4.09692 40.2705H139.712C141.655 40.2705 143.231 38.6954 143.231 36.7524V3.78857C143.231 1.8456 141.655 0.270508 139.712 0.270508Z" fill="#1F1F1F"/>
<path d="M26.7886 15.4355L21.9531 20.27L9.48535 7.80285C9.94065 6.8601 11.1434 6.40489 12.1485 6.98485L26.7886 15.4355Z" fill="#00FF7C"/>
<path d="M32.3126 21.914L26.7886 25.1033L21.9531 20.2705L26.7886 15.436L32.3126 18.6254C33.5792 19.3564 33.5792 21.1832 32.3126 21.9142V21.914Z" fill="#DAA520"/>
<path d="M21.9534 20.2704L9.4857 32.7356C9.36637 32.4901 9.29883 32.2125 9.29883 31.9101V8.63038C9.29883 8.32796 9.36637 8.04871 9.4857 7.80322L21.9534 20.2704Z" fill="#00D3FF"/>
<path d="M26.7886 25.1028L12.1485 33.5552C11.1434 34.1351 9.93894 33.6796 9.48535 32.7352L21.9531 20.27L26.7886 25.1028Z" fill="#FF2132"/>
<path d="M48.8949 12.4645C48.4902 12.603 47.691 12.8319 46.7469 12.8319C45.6883 12.8319 44.8166 12.5738 44.1318 11.9475C43.53 11.3908 43.1562 10.4966 43.1562 9.4529C43.1668 7.45582 44.5989 5.99463 46.944 5.99463C47.7536 5.99463 48.3866 6.16372 48.6874 6.30278L48.4694 7.00834C48.0959 6.84983 47.6289 6.72022 46.9232 6.72022C45.2213 6.72022 44.1109 7.73421 44.1109 9.41313C44.1109 11.0921 45.1798 12.1166 46.809 12.1166C47.4008 12.1166 47.8051 12.0365 48.0129 11.9378V9.94015H46.5912V9.24432H48.8949V12.4648V12.4645Z" fill="white"/>
<path d="M53.8998 9.62229H51.1809V12.0368H54.2112V12.7627H50.2783V6.06445H54.0555V6.79033H51.1809V8.907H53.8998V9.62229Z" fill="white"/>
<path d="M56.8813 6.80005H54.7539V6.06445H59.9319V6.80005H57.7942V12.7627H56.8813V6.80005Z" fill="white"/>
<path d="M63.8167 6.06445V12.7627H62.9141V6.06445H63.8167Z" fill="white"/>
<path d="M66.7238 6.80005H64.5967V6.06445H69.7747V6.80005H67.6373V12.7627H66.7238V6.80005Z" fill="white"/>
<path d="M78.7341 9.34382C78.7341 11.6499 77.2711 12.8716 75.486 12.8716C73.7008 12.8716 72.3418 11.5 72.3418 9.47315C72.3418 7.34674 73.7217 5.95508 75.5899 5.95508C77.458 5.95508 78.7341 7.35647 78.7341 9.34382ZM73.3068 9.45311C73.3068 10.8845 74.1164 12.1661 75.5378 12.1661C76.9592 12.1661 77.7794 10.9037 77.7794 9.3833C77.7794 8.0523 77.0528 6.66063 75.5484 6.66063C74.044 6.66063 73.3071 7.98277 73.3071 9.45311H73.3068Z" fill="white"/>
<path d="M79.9102 12.7627V6.06445H80.8957L83.137 9.4532C83.6562 10.2389 84.0608 10.9444 84.3928 11.6297L84.4134 11.6199C84.3304 10.725 84.3095 9.91012 84.3095 8.86723V6.06445H85.1606V12.7627H84.2474L82.0267 9.36421C81.5391 8.61889 81.072 7.85353 80.7192 7.12851L80.6883 7.13824C80.7404 7.98285 80.7609 8.78741 80.7609 9.90068V12.7627H79.9102Z" fill="white"/>
<path d="M53.5959 29.8494C52.8595 30.1123 51.4058 30.5472 49.6882 30.5472C47.7625 30.5472 46.1765 30.0571 44.9308 28.8674C43.8359 27.8102 43.1562 26.1119 43.1562 24.1294C43.1754 20.3366 45.7805 17.561 50.0467 17.561C51.5194 17.561 52.671 17.8823 53.2181 18.1464L52.8215 19.4866C52.1421 19.1853 51.2925 18.9395 50.009 18.9395C46.9129 18.9395 44.893 20.8651 44.893 24.0541C44.893 27.2432 46.8376 29.1887 49.8012 29.1887C50.8775 29.1887 51.6135 29.0365 51.9913 28.8491V25.0547H49.4051V23.7331H53.5962V29.8497L53.5959 29.8494Z" fill="white"/>
<path d="M64.4194 25.7725C64.4194 29.1503 62.0782 30.6227 59.8698 30.6227C57.3967 30.6227 55.4902 28.8107 55.4902 25.923C55.4902 22.8647 57.4912 21.0728 60.0209 21.0728C62.5507 21.0728 64.4194 22.9783 64.4194 25.7725ZM57.1704 25.8663C57.1704 27.8671 58.3216 29.3781 59.9454 29.3781C61.5691 29.3781 62.7207 27.8857 62.7207 25.8297C62.7207 24.2821 61.9463 22.3182 59.9834 22.3182C58.0206 22.3182 57.1704 24.1302 57.1704 25.8666V25.8663Z" fill="white"/>
<path d="M74.7886 25.7725C74.7886 29.1503 72.4474 30.6227 70.239 30.6227C67.7659 30.6227 65.8594 28.8107 65.8594 25.923C65.8594 22.8647 67.8603 21.0728 70.3901 21.0728C72.9199 21.0728 74.7886 22.9783 74.7886 25.7725ZM67.5395 25.8663C67.5395 27.8671 68.6908 29.3781 70.3145 29.3781C71.9383 29.3781 73.0898 27.8857 73.0898 25.8297C73.0898 24.2821 72.3155 22.3182 70.3526 22.3182C68.3897 22.3182 67.5395 24.1302 67.5395 25.8666V25.8663Z" fill="white"/>
<path d="M84.7618 21.28C84.724 21.9409 84.6865 22.6771 84.6865 23.7895V29.0929C84.6865 31.189 84.271 32.4725 83.3838 33.2639C82.4964 34.0954 81.2129 34.3597 80.0614 34.3597C78.9098 34.3597 77.7582 34.0954 77.0222 33.6052L77.4377 32.3403C78.0418 32.7169 78.9856 33.0565 80.1186 33.0565C81.8176 33.0565 83.0633 32.1698 83.0633 29.8674V28.8486H83.0255C82.5156 29.6969 81.534 30.3761 80.1183 30.3761C77.8527 30.3761 76.2295 28.452 76.2295 25.9225C76.2295 22.8273 78.2493 21.0723 80.3447 21.0723C81.9306 21.0723 82.7986 21.9023 83.1952 22.6568H83.233L83.3089 21.2797H84.7623L84.7618 21.28ZM83.0441 24.8853C83.0441 24.6009 83.0253 24.3566 82.9497 24.1291C82.6478 23.1672 81.8359 22.3741 80.628 22.3741C79.042 22.3741 77.9096 23.7143 77.9096 25.8289C77.9096 27.6209 78.8156 29.1132 80.6091 29.1132C81.6287 29.1132 82.5536 28.4709 82.9122 27.4134C83.0067 27.1307 83.0444 26.8094 83.0444 26.5268V24.8853H83.0441Z" fill="white"/>
<path d="M87.4482 17.0142H89.1095V30.4152H87.4482V17.0142Z" fill="white"/>
<path d="M92.8312 26.149C92.869 28.3959 94.3039 29.3209 95.9651 29.3209C97.1544 29.3209 97.8719 29.1134 98.4949 28.8491L98.7782 30.037C98.193 30.3014 97.1922 30.6041 95.739 30.6041C92.9259 30.6041 91.2461 28.7538 91.2461 25.9982C91.2461 23.2426 92.8693 21.0728 95.5313 21.0728C98.514 21.0728 99.3067 23.6961 99.3067 25.3759C99.3067 25.7155 99.269 25.9799 99.2504 26.149H92.8318H92.8312ZM97.7016 24.9611C97.7208 23.9039 97.2678 22.2624 95.3985 22.2624C93.7184 22.2624 92.982 23.81 92.8498 24.9611H97.7013H97.7016Z" fill="white"/>
<path d="M103.821 17.8454C104.614 17.7132 105.653 17.5996 106.973 17.5996C108.597 17.5996 109.787 17.9776 110.542 18.6568C111.24 19.2608 111.655 20.1858 111.655 21.3171C111.655 22.4484 111.316 23.3748 110.674 24.0358C109.805 24.9611 108.389 25.4329 106.785 25.4329C106.294 25.4329 105.841 25.4128 105.463 25.3193V30.4153H103.821V17.8457V17.8454ZM105.463 23.9788C105.822 24.0727 106.275 24.111 106.823 24.111C108.805 24.111 110.013 23.1491 110.013 21.3938C110.013 19.6385 108.824 18.9011 107.012 18.9011C106.294 18.9011 105.746 18.9581 105.463 19.0333V23.9788Z" fill="white"/>
<path d="M113.719 17.0142H115.38V30.4152H113.719V17.0142Z" fill="white"/>
<path d="M123.236 30.415L123.104 29.2639H123.047C122.537 29.9815 121.556 30.6224 120.253 30.6224C118.403 30.6224 117.459 29.3206 117.459 27.999C117.459 25.7905 119.422 24.5828 122.953 24.6011V24.4137C122.953 23.6575 122.745 22.299 120.876 22.299C120.026 22.299 119.139 22.5634 118.497 22.9783L118.12 21.8842C118.875 21.3941 119.97 21.0728 121.121 21.0728C123.915 21.0728 124.595 22.9783 124.595 24.8088V28.2251C124.595 29.0182 124.633 29.7927 124.746 30.415H123.236ZM122.99 25.7539C121.178 25.7155 119.12 26.0366 119.12 27.8102C119.12 28.886 119.838 29.3961 120.687 29.3961C121.877 29.3961 122.632 28.6416 122.896 27.8671C122.953 27.6966 122.99 27.5089 122.99 27.3384V25.7539H122.99Z" fill="white"/>
<path d="M127.734 21.2798L129.734 26.6771C129.942 27.281 130.169 27.9986 130.32 28.546H130.357C130.528 27.9989 130.716 27.3011 130.943 26.6404L132.755 21.2801H134.511L132.019 27.7915C130.83 30.925 130.018 32.5278 128.885 33.51C128.073 34.2276 127.262 34.5106 126.846 34.5858L126.431 33.1887C126.846 33.0566 127.394 32.7922 127.884 32.3773C128.337 32.0191 128.904 31.3768 129.281 30.5284C129.357 30.3579 129.413 30.2257 129.413 30.1319C129.413 30.038 129.376 29.9044 129.3 29.697L125.921 21.2798H127.733H127.734Z" fill="white"/>
</svg>
