<svg width="114" height="113" viewBox="0 0 114 113" fill="none" xmlns="http://www.w3.org/2000/svg">
<path d="M57.5 53C63.8513 53 69 47.8513 69 41.5C69 35.1487 63.8513 30 57.5 30C51.1487 30 46 35.1487 46 41.5C46 47.8513 51.1487 53 57.5 53Z" fill="#818181"/>
<path d="M77.2979 77.1105V82.9189C78.0484 82.7883 78.6521 82.4294 79.1089 81.8747C79.5821 81.3199 79.8105 80.6673 79.8105 79.9331C79.8105 79.2642 79.6147 78.6931 79.2231 78.2036C78.8315 77.7468 78.1789 77.3715 77.2979 77.1105Z" fill="#DAA520"/>
<path d="M73.7252 68.0715C73.3826 68.5446 73.2031 69.0667 73.2031 69.6541C73.2031 70.1762 73.3663 70.6657 73.6763 71.1225C74.0026 71.5793 74.4758 71.9383 75.1284 72.2157V67.0599C74.541 67.2557 74.0679 67.5983 73.7252 68.0715Z" fill="#DAA520"/>
<path d="M59.8546 60.4862C59.0225 60.6004 58.1904 60.6657 57.342 60.6657C46.851 60.6657 38.3178 52.1325 38.3178 41.6415C38.3178 31.1505 46.851 22.6337 57.342 22.6337C67.833 22.6337 76.3661 31.1668 76.3661 41.6578C76.3661 46.1283 74.7998 50.2399 72.2056 53.4867C73.6088 53.2094 75.0446 53.0625 76.513 53.0625C77.6224 53.0625 78.7319 53.1441 79.9067 53.3236C81.2772 53.5357 82.5987 53.862 83.8551 54.3188C87.0693 51.6431 89.7124 48.902 91.6866 46.6668L95.684 41.6741C95.684 41.6741 79.4988 18 57.342 18C35.1852 18 19 41.6578 19 41.6578C19 41.6578 34.7936 64.7446 56.5425 65.2993C57.4399 63.5535 58.5494 61.9383 59.8546 60.4862Z" fill="#818181"/>
<path d="M79.0925 56.7157C78.1462 56.5852 77.1672 56.5036 76.172 56.5036C71.8646 56.5036 67.8999 57.9231 64.7183 60.3052C61.8141 62.4915 59.5299 65.4773 58.241 68.9362C57.4252 71.0409 57.001 73.3088 57.001 75.6746C57.001 76.3109 57.0336 76.9309 57.0989 77.5672C57.4089 80.7325 58.4857 83.6856 60.1499 86.1982C63.1031 90.6688 67.8836 93.8503 73.4146 94.6498C74.312 94.7803 75.2257 94.8456 76.1557 94.8456C86.7446 94.8456 95.3266 86.2635 95.3266 75.6746C95.343 66.0973 88.2946 58.1352 79.0925 56.7157ZM81.8335 83.963C80.7404 85.1867 79.2393 85.9535 77.2978 86.2309V89.0209H75.1278V86.3125C73.3983 86.1004 72.0115 85.464 70.9346 84.3872C69.8578 83.3104 69.1725 81.793 68.8788 79.8351L72.7783 79.4109C72.9414 80.2104 73.2351 80.8956 73.6757 81.4667C74.1162 82.0377 74.6057 82.4619 75.1441 82.723V76.4741C73.1862 75.9193 71.7667 75.0709 70.853 73.9451C69.9394 72.8193 69.4825 71.4488 69.4825 69.8336C69.4825 68.202 70.0046 66.8315 71.0325 65.722C72.0604 64.6125 73.4309 63.9762 75.1441 63.7967V62.3283H77.3141V63.7967C78.8967 63.9925 80.153 64.5309 81.083 65.412C82.013 66.3094 82.6167 67.5004 82.8777 68.9851L79.1088 69.4746C78.8804 68.2999 78.2767 67.5004 77.3141 67.0925V72.9172C79.6962 73.5699 81.3277 74.402 82.1925 75.4299C83.0572 76.4577 83.4977 77.7793 83.4977 79.3946C83.4651 81.2056 82.9267 82.723 81.8335 83.963Z" fill="#DAA520"/>
</svg>
