<svg width="114" height="113" viewBox="0 0 114 113" fill="none" xmlns="http://www.w3.org/2000/svg">
<g clip-path="url(#clip0_50_556)">
<path d="M43.5819 66.8451L59.4275 58.8876L69.0039 67.4471V98.584H58.4281V101.981H87.1725V98.584H76.5967V50.2651L92.0935 42.4825L90.8046 39.9716L42.293 64.3342L43.5819 66.8451ZM61.2717 57.9614L69.0043 54.0781V64.8731L61.2717 57.9614ZM72.8005 100.198C71.7699 100.198 70.9342 99.372 70.9342 98.3525C70.9342 97.3331 71.7699 96.5066 72.8005 96.5066C73.8311 96.5066 74.6667 97.3331 74.6667 98.3525C74.6667 99.3723 73.8311 100.198 72.8005 100.198ZM72.8005 51.1818C73.8311 51.1818 74.6667 52.0083 74.6667 53.0277C74.6667 54.0472 73.8311 54.8737 72.8005 54.8737C71.7699 54.8737 70.9342 54.0472 70.9342 53.0277C70.9342 52.0083 71.7699 51.1818 72.8005 51.1818Z" fill="#818181"/>
<path d="M34.3831 95.1564L35.762 103.726L38.1773 103.345L33.5864 74.8176H33.7297L39.8354 77.2093L44.3881 98.7566C44.8638 101.009 46.871 102.555 49.108 102.555C49.4351 102.555 49.7675 102.522 50.1004 102.453C52.71 101.913 54.3831 99.3838 53.8379 96.8026L48.7535 72.7398C48.4214 71.1696 47.3143 69.8683 45.806 69.2778L32.228 63.9587C31.977 60.2657 32.4651 56.3293 33.1103 52.7096L26.8895 47.4165C26.0844 46.7313 25.5967 45.7768 25.5171 44.7287C25.4376 43.6807 25.7755 42.6651 26.4686 41.8687C27.2247 40.999 28.3244 40.5002 29.4852 40.5002C30.4355 40.5002 31.356 40.8382 32.0778 41.452L34.7924 43.762C34.9059 40.6014 33.4501 37.5206 30.7946 36.8659C27.4981 36.0528 22.7195 37.8239 20.7752 43.4164C18.1475 51.1218 17.5826 56.1372 18.5812 64.6222C19.3952 68.766 21.5958 70.4026 24.027 71.0168L26.9042 72.1439H16.484C15.7407 72.1439 15.1325 72.7455 15.1325 73.4807C15.1325 74.216 15.7407 74.8176 16.484 74.8176H17.3374L12.7461 103.345L15.1614 103.726L16.5404 95.1564H34.3831ZM31.1101 74.8176L33.9529 92.4827H16.9705L19.8134 74.8176H31.1101Z" fill="#818181"/>
<path d="M38.8404 25.1702C40.0873 25.5212 40.9198 26.6048 41.004 27.8145L42.5571 28.2518C43.2436 27.3069 44.4546 26.8233 45.6532 27.0964C45.384 22.5898 41.606 19.017 36.9819 19.017C33.327 19.017 30.2011 21.2507 28.918 24.4121L35.5933 26.2913C36.3088 25.307 37.5935 24.8192 38.8404 25.1702Z" fill="#818181"/>
<path d="M36.9813 36.2048C39.8314 36.2048 42.3611 34.8473 43.945 32.7508C42.4927 32.2195 41.6749 30.6654 42.1058 29.1674C42.1147 29.1364 42.1271 29.1074 42.1371 29.0768L40.9207 28.7342C40.913 28.7652 40.908 28.7965 40.8991 28.8274C40.4465 30.3999 38.7911 31.3116 37.2018 30.864C35.612 30.4163 34.6903 28.7789 35.1424 27.2068C35.1513 27.1759 35.1637 27.1468 35.1737 27.1163L28.6216 25.2719C28.4092 26.0159 28.293 26.7996 28.293 27.6109C28.293 32.3574 32.183 36.2048 36.9813 36.2048Z" fill="#818181"/>
<path d="M47.1778 30.5891C47.5211 29.3969 46.8223 28.1551 45.617 27.8155C44.4117 27.476 43.1563 28.1672 42.813 29.3594C42.4697 30.5516 43.1685 31.7933 44.3738 32.1329C45.5791 32.4725 46.8345 31.7813 47.1778 30.5891Z" fill="#818181"/>
<path d="M40.211 28.6294C40.5543 27.4371 39.8555 26.1954 38.6502 25.8558C37.4449 25.5163 36.1895 26.2075 35.8462 27.3997C35.5029 28.5919 36.2017 29.8336 37.407 30.1732C38.6123 30.5128 39.8677 29.8216 40.211 28.6294Z" fill="#818181"/>
<path d="M48.4385 39.4551L47.3955 40.7496L51.9312 44.3258L53.57 43.5015L48.4385 39.4551Z" fill="#818181"/>
<path d="M60.7295 50.2044L59.4757 48.5051C59.3096 48.8297 59.0972 49.1318 58.8428 49.403L60.7295 50.2044Z" fill="#818181"/>
<path d="M27.142 42.4412C26.0291 43.7204 26.1759 45.6496 27.4691 46.7504L38.9894 56.5539C39.562 57.0412 40.2803 57.2933 41.0051 57.2933C41.4816 57.2933 41.9619 57.1841 42.4048 56.9614L57.3356 49.4496C58.8562 48.6846 59.4621 46.8451 58.6887 45.3406C57.9152 43.8365 56.0555 43.2372 54.5345 44.0022L41.4487 50.5855L31.4985 42.1177C30.2042 41.0169 28.2541 41.1625 27.142 42.4412Z" fill="#818181"/>
<path d="M72.8011 53.8814C73.2776 53.8814 73.6638 53.4993 73.6638 53.0281C73.6638 52.5568 73.2776 52.1748 72.8011 52.1748C72.3247 52.1748 71.9385 52.5568 71.9385 53.0281C71.9385 53.4993 72.3247 53.8814 72.8011 53.8814Z" fill="#818181"/>
<path d="M72.8011 99.2058C73.2776 99.2058 73.6638 98.8237 73.6638 98.3525C73.6638 97.8812 73.2776 97.4992 72.8011 97.4992C72.3247 97.4992 71.9385 97.8812 71.9385 98.3525C71.9385 98.8237 72.3247 99.2058 72.8011 99.2058Z" fill="#818181"/>
<path d="M45.2939 59.835L80.6231 42.0882L81.2646 43.3375L45.9354 61.0843L45.2939 59.835Z" fill="#818181"/>
</g>
<path d="M101.04 22.7503C100.587 22.4867 100.179 22.1509 99.834 21.7561C99.869 21.2066 99.9999 20.6674 100.221 20.163C100.627 19.0166 101.087 17.718 100.349 16.7085C99.612 15.699 98.2199 15.7311 96.9981 15.759C96.4583 15.8146 95.9129 15.7778 95.3854 15.6501C95.1044 15.1929 94.9037 14.6909 94.792 14.1659C94.4457 12.986 94.0506 11.6525 92.8372 11.2532C91.6671 10.8762 90.5836 11.7056 89.6257 12.4345C89.2124 12.8119 88.7335 13.1105 88.2126 13.3155C87.6864 13.1122 87.2021 12.8135 86.7842 12.4345C85.8292 11.7098 84.7498 10.872 83.5741 11.2546C82.3635 11.6483 81.9684 12.986 81.6193 14.1659C81.5078 14.6891 81.3091 15.19 81.0315 15.6473C80.503 15.7746 79.9569 15.8124 79.416 15.759C78.19 15.7255 76.8091 15.6892 76.0648 16.7085C75.3206 17.7278 75.7856 19.0166 76.1933 20.1616C76.4173 20.6652 76.5502 21.2047 76.5857 21.7547C76.2409 22.15 75.8339 22.4863 75.3807 22.7503C74.3586 23.4485 73.1982 24.2429 73.1982 25.5331C73.1982 26.8233 74.3586 27.615 75.3807 28.316C75.8338 28.5795 76.2408 28.9154 76.5857 29.3101C76.5539 29.86 76.4248 30.3999 76.2045 30.9047C75.7995 32.0497 75.3416 33.3482 76.0774 34.3577C76.8133 35.3673 78.2012 35.3351 79.4285 35.3072C79.9688 35.2516 80.5147 35.2884 81.0426 35.4161C81.3224 35.8739 81.5226 36.3757 81.6347 36.9004C81.981 38.0803 82.3761 39.4137 83.5895 39.8131C83.784 39.8754 83.987 39.9075 84.1913 39.908C85.1732 39.7671 86.0858 39.3206 86.7996 38.6318C87.2129 38.2544 87.6918 37.9557 88.2126 37.7507C88.7389 37.9541 89.2232 38.2528 89.6411 38.6318C90.5975 39.3621 91.681 40.1957 92.8525 39.8117C94.0631 39.4179 94.4583 38.0803 94.8074 36.9018C94.9193 36.3775 95.1194 35.8761 95.3994 35.4189C95.9258 35.2908 96.4702 35.253 97.0093 35.3072C98.2353 35.3365 99.6162 35.377 100.36 34.3577C101.105 33.3384 100.64 32.0497 100.232 30.9033C100.009 30.4001 99.8767 29.8619 99.8396 29.3129C100.185 28.9173 100.592 28.581 101.046 28.3173C102.068 27.6192 103.228 26.8233 103.228 25.5331C103.228 24.2429 102.064 23.4499 101.04 22.7503Z" fill="#DAA520"/>
<path d="M86.8166 29.3729C86.6791 29.3732 86.5429 29.3462 86.4158 29.2935C86.2888 29.2407 86.1735 29.1633 86.0766 29.0658L83.284 26.2732C83.099 26.0746 82.9983 25.8121 83.0031 25.5408C83.0079 25.2695 83.1178 25.0106 83.3097 24.8187C83.5015 24.6269 83.7604 24.517 84.0317 24.5122C84.303 24.5074 84.5656 24.6081 84.7641 24.7931L86.9144 26.9434L91.7735 23.299C91.9957 23.1324 92.275 23.0609 92.5499 23.1001C92.8249 23.1394 93.073 23.2863 93.2396 23.5085C93.4062 23.7307 93.4778 24.01 93.4385 24.2849C93.3992 24.5599 93.2523 24.808 93.0302 24.9746L87.445 29.1635C87.2636 29.2994 87.0432 29.3728 86.8166 29.3729Z" fill="white"/>
<defs>
<clipPath id="clip0_50_556">
<rect width="85.6396" height="84.7087" fill="white" transform="translate(9.60059 19.017)"/>
</clipPath>
</defs>
</svg>
