<svg width="30" height="30" viewBox="0 0 30 30" fill="none" xmlns="http://www.w3.org/2000/svg">
<path d="M25 25L5 25" stroke="#B98A2E" stroke-width="1.5" stroke-linecap="round"/>
<path d="M20 25V9C20 7.11438 20 6.17157 19.4142 5.58579C18.8284 5 17.8856 5 16 5H14C12.1144 5 11.1716 5 10.5858 5.58579C10 6.17157 10 7.11438 10 9V25" stroke="#B98A2E" stroke-width="1.5"/>
<path d="M24 25V14.5C24 13.0955 24 12.3933 23.6629 11.8889C23.517 11.6705 23.3295 11.483 23.1111 11.3371C22.6067 11 21.9045 11 20.5 11" stroke="#B98A2E" stroke-width="1.5"/>
<path d="M6 25V14.5C6 13.0955 6 12.3933 6.33706 11.8889C6.48298 11.6705 6.67048 11.483 6.88886 11.3371C7.39331 11 8.09554 11 9.5 11" stroke="#B98A2E" stroke-width="1.5"/>
<path d="M15 25V22" stroke="#B98A2E" stroke-width="1.5" stroke-linecap="round"/>
<path d="M13 8H17" stroke="#B98A2E" stroke-width="1.5" stroke-linecap="round"/>
<path d="M13 11H17" stroke="#B98A2E" stroke-width="1.5" stroke-linecap="round"/>
<path d="M13 14H17" stroke="#B98A2E" stroke-width="1.5" stroke-linecap="round"/>
<path d="M13 17H17" stroke="#B98A2E" stroke-width="1.5" stroke-linecap="round"/>
</svg>
