<svg width="30" height="30" viewBox="0 0 30 30" fill="none" xmlns="http://www.w3.org/2000/svg">
<circle cx="15" cy="19" r="3" stroke="#B98A2E" stroke-width="1.5"/>
<path d="M15 22.26L12.7371 24.4294C12.4131 24.7401 12.251 24.8954 12.1138 24.9492C11.8011 25.0717 11.4543 24.9669 11.2898 24.7002C11.2176 24.5831 11.1951 24.372 11.1501 23.9498C11.1247 23.7114 11.112 23.5922 11.0735 23.4923C10.9871 23.2688 10.8058 23.095 10.5727 23.0122C10.4685 22.9753 10.3442 22.9631 10.0955 22.9387C9.65512 22.8956 9.43491 22.874 9.31283 22.8048C9.03463 22.6472 8.92529 22.3146 9.05306 22.0148C9.10913 21.8833 9.27116 21.7279 9.59523 21.4172L11.0735 20.0001L12.1138 18.9597" stroke="#B98A2E" stroke-width="1.5"/>
<path d="M15 22.2599L17.2629 24.4294C17.5869 24.7401 17.749 24.8954 17.8862 24.9492C18.1989 25.0717 18.5457 24.9668 18.7102 24.7001C18.7824 24.5831 18.8049 24.372 18.8499 23.9497C18.8753 23.7113 18.888 23.5921 18.9265 23.4923C19.0129 23.2688 19.1942 23.0949 19.4273 23.0122C19.5315 22.9752 19.6558 22.9631 19.9045 22.9387C20.3449 22.8956 20.5651 22.874 20.6872 22.8048C20.9654 22.6471 21.0747 22.3146 20.9469 22.0148C20.8909 21.8832 20.7288 21.7279 20.4048 21.4172L18.9265 20L18 19.0735" stroke="#B98A2E" stroke-width="1.5"/>
<path d="M20.3197 20.9957C22.2921 20.9748 23.3915 20.8512 24.1213 20.1213C25 19.2426 25 17.8284 25 15V11C25 8.17157 25 6.75736 24.1213 5.87868C23.2426 5 21.8284 5 19 5L11 5C8.17157 5 6.75736 5 5.87868 5.87868C5 6.75736 5 8.17157 5 11L5 15C5 17.8284 5 19.2426 5.87868 20.1213C6.64706 20.8897 7.82497 20.9862 10 20.9983" stroke="#B98A2E" stroke-width="1.5"/>
<path d="M12 9L18 9" stroke="#B98A2E" stroke-width="1.5" stroke-linecap="round"/>
<path d="M10 12.5H20" stroke="#B98A2E" stroke-width="1.5" stroke-linecap="round"/>
</svg>
