<svg width="38" height="38" viewBox="0 0 38 38" fill="none" xmlns="http://www.w3.org/2000/svg">
<g clip-path="url(#clip0_212_883)">
<path d="M37.9977 22.7657C37.9942 22.3517 37.7903 21.9651 37.4506 21.7283C37.1109 21.4915 36.6776 21.434 36.2879 21.5739L28.8947 24.2969C28.4508 24.4548 28.1329 24.8481 28.0715 25.3152C28.008 25.7865 28.2139 26.2537 28.6046 26.5247L30.462 27.8159C26.7556 32.6713 20.401 34.6787 14.578 32.8334C8.75498 30.9882 4.71627 25.6875 4.48274 19.5836C4.44905 18.7833 3.99088 18.0617 3.28099 17.6908C2.57102 17.3198 1.71709 17.3558 1.04082 17.7851C0.364548 18.2145 -0.0312115 18.972 0.00247971 19.7723C0.3949 29.9313 8.73035 37.9726 18.8968 38C20.0268 37.9996 21.1546 37.8995 22.267 37.7011C27.0138 36.8719 31.2622 34.2548 34.138 30.3882L36.0068 31.6946C36.3927 31.9671 36.8985 32.0013 37.3176 31.7834C37.7367 31.5654 37.9991 31.1317 37.9977 30.6593L37.9933 25.3285L37.9977 22.7657ZM34.3546 28.9926C34.2168 28.8963 34.0464 28.8589 33.881 28.8883C33.7155 28.9178 33.5686 29.0118 33.4725 29.1497C29.1276 35.394 21.2777 38.1621 13.977 36.0244C6.67645 33.8865 1.55947 27.3215 1.26894 19.7198C1.25031 19.2477 1.5712 18.8296 2.03204 18.7256C2.31144 18.6614 2.60501 18.7252 2.83246 18.8998C3.06266 19.0771 3.20195 19.3478 3.21242 19.6382C3.47527 26.3998 8.02847 32.2375 14.5226 34.1391C21.0166 36.0406 27.9995 33.5807 31.8679 28.0288C32.0676 27.7423 31.9976 27.3482 31.7114 27.148L29.3266 25.4837L36.7312 22.7651V25.3273V30.6568L34.3546 28.9926Z" fill="#B98A2E"/>
<path d="M0.542658 16.2546C0.591339 16.2908 0.643063 16.3228 0.697162 16.3502C1.00966 16.5168 1.37848 16.5414 1.71035 16.418L9.10363 13.6981C9.54748 13.5402 9.86539 13.1469 9.92684 12.6798C9.99028 12.2085 9.78435 11.7414 9.39364 11.4703L7.53818 10.1759C11.2445 5.32053 17.5991 3.31316 23.4222 5.15838C29.2452 7.0036 33.2839 12.3044 33.5175 18.4083C33.5512 19.2086 34.0093 19.9302 34.7192 20.3011C35.4292 20.6721 36.2831 20.6361 36.9594 20.2068C37.6357 19.7775 38.0314 19.0199 37.9977 18.2196C37.6823 10.1964 32.348 3.24147 24.6808 0.85682C17.0136 -1.52783 8.67566 1.17473 3.86525 7.60381L1.99346 6.29728C1.60764 6.02485 1.10198 5.99057 0.682914 6.20837C0.263852 6.42618 0.0012984 6.85971 0.00248575 7.33198V15.2173C-0.0010021 15.6314 0.201442 16.0201 0.542658 16.2546ZM3.64566 8.9994C3.78347 9.09565 3.95378 9.13312 4.11926 9.10366C4.28475 9.0742 4.43169 8.98018 4.52779 8.84229C8.87261 2.59807 16.7226 -0.170092 24.0232 1.96766C31.3238 4.10542 36.4408 10.6705 36.7313 18.2722C36.75 18.7442 36.4291 19.1623 35.9683 19.2664C35.6889 19.33 35.3955 19.2662 35.1678 19.0922C34.9376 18.9148 34.7983 18.6442 34.7879 18.3538C34.4613 9.91507 27.537 3.23583 19.092 3.21335C18.1544 3.21364 17.2187 3.29646 16.2956 3.46098C12.1738 4.18208 8.51247 6.52384 6.12931 9.96323C5.92961 10.2498 5.99959 10.6438 6.28574 10.8441L8.67062 12.5083L1.2691 15.2263V7.33525L3.64566 8.9994Z" fill="#B98A2E"/>
<path d="M12.6675 28.4948H25.3327C26.3819 28.4948 27.2324 27.6442 27.2324 26.595V18.3627H27.5864C28.2197 18.3653 28.7881 17.975 29.0132 17.3831C29.2625 16.7742 29.1146 16.0748 28.6402 15.6188L27.2324 14.27V9.49713C27.2324 8.79763 26.6654 8.23059 25.9659 8.23059H24.0661C23.3666 8.23059 22.7996 8.79763 22.7996 9.49713V10.0221L20.0532 7.39024C19.4649 6.82492 18.5352 6.82492 17.947 7.39024L9.36002 15.6188C8.88493 16.0744 8.73704 16.7742 8.98705 17.3831C9.21205 17.9748 9.78013 18.365 10.4131 18.3627H10.7678V26.595C10.7678 27.6443 11.6183 28.4948 12.6675 28.4948ZM17.1003 27.2283V23.4288C17.1003 22.3796 17.9509 21.529 19.0001 21.529C20.0493 21.529 20.8998 22.3796 20.8998 23.4288V27.2283H17.1003ZM25.9659 26.595C25.9659 26.9448 25.6824 27.2283 25.3327 27.2283H22.1664V23.4287C22.1664 21.68 20.7488 20.2624 19.0001 20.2624C17.2514 20.2624 15.8338 21.68 15.8338 23.4287V27.2283H12.6675C12.3177 27.2283 12.0342 26.9448 12.0342 26.595V18.3627H25.9658V26.595H25.9659ZM24.0661 9.49713H25.9659V13.056L24.0661 11.2354V9.49713ZM10.1618 16.9113C10.1048 16.7816 10.1343 16.6302 10.2358 16.5314L18.8228 8.30473C18.8701 8.25813 18.9337 8.23163 19.0001 8.23067C19.0664 8.23126 19.1299 8.2579 19.1768 8.30473L22.9763 11.9453L23.0029 11.97L26.1445 14.9805C26.1514 14.988 26.1584 14.9944 26.166 15.0014L27.7643 16.5332C27.8659 16.632 27.8954 16.7835 27.8384 16.9132C27.8023 17.0227 27.7004 17.0971 27.5851 17.0981H10.4131C10.298 17.096 10.197 17.0209 10.1618 16.9113Z" fill="#B98A2E"/>
</g>
<defs>
<clipPath id="clip0_212_883">
<rect width="38" height="38" fill="white"/>
</clipPath>
</defs>
</svg>
