<svg width="38" height="38" viewBox="0 0 38 38" fill="none" xmlns="http://www.w3.org/2000/svg">
<path d="M33.8438 3.5625C32.8452 3.56367 31.8804 3.92434 31.1259 4.57851C30.3714 5.23269 29.8777 6.13665 29.735 7.125H4.75V4.15625C4.75 3.99878 4.68744 3.84776 4.57609 3.73641C4.46475 3.62506 4.31372 3.5625 4.15625 3.5625C3.05433 3.56376 1.9979 4.00205 1.21873 4.78123C0.43955 5.5604 0.00125718 6.61683 0 7.71875L0 30.2812C0.00125718 31.3832 0.43955 32.4396 1.21873 33.2188C1.9979 33.998 3.05433 34.4362 4.15625 34.4375H33.8438C34.9457 34.4362 36.0021 33.998 36.7813 33.2188C37.5605 32.4396 37.9987 31.3832 38 30.2812V7.71875C37.9987 6.61683 37.5605 5.5604 36.7813 4.78123C36.0021 4.00205 34.9457 3.56376 33.8438 3.5625ZM33.8438 33.25C33.2566 33.25 32.6826 33.0759 32.1944 32.7497C31.7062 32.4235 31.3257 31.9598 31.101 31.4173C30.8763 30.8749 30.8175 30.278 30.932 29.7021C31.0466 29.1262 31.3293 28.5972 31.7445 28.182C32.1597 27.7668 32.6887 27.4841 33.2646 27.3695C33.8405 27.255 34.4374 27.3138 34.9798 27.5385C35.5223 27.7632 35.986 28.1437 36.3122 28.6319C36.6384 29.1201 36.8125 29.6941 36.8125 30.2812C36.8116 31.0683 36.4985 31.8229 35.9419 32.3794C35.3854 32.936 34.6308 33.2491 33.8438 33.25ZM33.8438 26.125C33.0177 26.1241 32.2102 26.3697 31.5244 26.8303C30.8387 27.2909 30.3059 27.9455 29.9943 28.7105C29.6826 29.4755 29.6062 30.3161 29.7748 31.1247C29.9435 31.9334 30.3495 32.6733 30.9409 33.25H4.15625C3.36889 33.25 2.61378 32.9372 2.05703 32.3805C1.50028 31.8237 1.1875 31.0686 1.1875 30.2812C1.1875 29.4939 1.50028 28.7388 2.05703 28.182C2.61378 27.6253 3.36889 27.3125 4.15625 27.3125C4.31372 27.3125 4.46475 27.2499 4.57609 27.1386C4.68744 27.0272 4.75 26.8762 4.75 26.7188V10.0938C4.75 9.93628 4.68744 9.78525 4.57609 9.6739C4.46475 9.56256 4.31372 9.5 4.15625 9.5C3.99878 9.5 3.84776 9.56256 3.73641 9.6739C3.62506 9.78525 3.5625 9.93628 3.5625 10.0938V26.1672C2.65963 26.2978 1.82495 26.7222 1.1875 27.3748V7.71875C1.18825 7.0346 1.4249 6.37163 1.85754 5.84165C2.29018 5.31166 2.89235 4.94708 3.5625 4.80938V7.71875C3.5625 7.87622 3.62506 8.02725 3.73641 8.13859C3.84776 8.24994 3.99878 8.3125 4.15625 8.3125H29.6875V25.5312C29.6875 25.6887 29.7501 25.8397 29.8614 25.9511C29.9728 26.0624 30.1238 26.125 30.2812 26.125C30.4387 26.125 30.5897 26.0624 30.7011 25.9511C30.8124 25.8397 30.875 25.6887 30.875 25.5312V7.71875C30.875 6.93139 31.1878 6.17628 31.7445 5.61953C32.3013 5.06278 33.0564 4.75 33.8438 4.75C34.6311 4.75 35.3862 5.06278 35.943 5.61953C36.4997 6.17628 36.8125 6.93139 36.8125 7.71875V27.3784C36.4266 26.9816 35.965 26.6663 35.4551 26.451C34.9452 26.2357 34.3973 26.1249 33.8438 26.125Z" fill="#B98A2E"/>
<path d="M26.7188 13.6562H26.125V13.0625C26.125 12.905 26.0624 12.754 25.9511 12.6427C25.8397 12.5313 25.6887 12.4688 25.5312 12.4688C25.3738 12.4688 25.2228 12.5313 25.1114 12.6427C25.0001 12.754 24.9375 12.905 24.9375 13.0625V13.6562H9.5V13.0625C9.5 12.905 9.43744 12.754 9.32609 12.6427C9.21474 12.5313 9.06372 12.4688 8.90625 12.4688C8.74878 12.4688 8.59776 12.5313 8.48641 12.6427C8.37506 12.754 8.3125 12.905 8.3125 13.0625V13.6562H7.71875C7.56128 13.6562 7.41026 13.7188 7.29891 13.8302C7.18756 13.9415 7.125 14.0925 7.125 14.25C7.125 14.4075 7.18756 14.5585 7.29891 14.6698C7.41026 14.7812 7.56128 14.8438 7.71875 14.8438H19V19C19 19.1575 19.0626 19.3085 19.1739 19.4198C19.2853 19.5312 19.4363 19.5938 19.5938 19.5938C19.7512 19.5938 19.9022 19.5312 20.0136 19.4198C20.1249 19.3085 20.1875 19.1575 20.1875 19V14.8438H26.7188C26.8762 14.8438 27.0272 14.7812 27.1386 14.6698C27.2499 14.5585 27.3125 14.4075 27.3125 14.25C27.3125 14.0925 27.2499 13.9415 27.1386 13.8302C27.0272 13.7188 26.8762 13.6562 26.7188 13.6562Z" fill="#B98A2E"/>
<path d="M16.0312 19.5938C16.1887 19.5938 16.3397 19.5312 16.4511 19.4198C16.5624 19.3085 16.625 19.1575 16.625 19V16.625C16.625 16.4675 16.5624 16.3165 16.4511 16.2052C16.3397 16.0938 16.1887 16.0312 16.0312 16.0312H11.2812C11.1238 16.0312 10.9728 16.0938 10.8614 16.2052C10.7501 16.3165 10.6875 16.4675 10.6875 16.625C10.6875 16.7825 10.7501 16.9335 10.8614 17.0448C10.9728 17.1562 11.1238 17.2188 11.2812 17.2188H15.4375V19C15.4375 19.1575 15.5001 19.3085 15.6114 19.4198C15.7228 19.5312 15.8738 19.5938 16.0312 19.5938Z" fill="#B98A2E"/>
<path d="M26.7188 26.125H26.125V16.625C26.125 16.4675 26.0624 16.3165 25.9511 16.2052C25.8397 16.0938 25.6887 16.0312 25.5312 16.0312C25.3738 16.0312 25.2228 16.0938 25.1114 16.2052C25.0001 16.3165 24.9375 16.4675 24.9375 16.625V26.125H16.625V21.9688H22.5625V24.3438C22.5625 24.5012 22.6251 24.6522 22.7364 24.7636C22.8478 24.8749 22.9988 24.9375 23.1562 24.9375C23.3137 24.9375 23.4647 24.8749 23.5761 24.7636C23.6874 24.6522 23.75 24.5012 23.75 24.3438V21.375C23.75 21.2175 23.6874 21.0665 23.5761 20.9552C23.4647 20.8438 23.3137 20.7812 23.1562 20.7812H11.2812C11.1238 20.7812 10.9728 20.8438 10.8614 20.9552C10.7501 21.0665 10.6875 21.2175 10.6875 21.375C10.6875 21.5325 10.7501 21.6835 10.8614 21.7948C10.9728 21.9062 11.1238 21.9688 11.2812 21.9688H15.4375V26.125H9.5V16.625C9.5 16.4675 9.43744 16.3165 9.32609 16.2052C9.21474 16.0938 9.06372 16.0312 8.90625 16.0312C8.74878 16.0312 8.59776 16.0938 8.48641 16.2052C8.37506 16.3165 8.3125 16.4675 8.3125 16.625V26.125H7.71875C7.56128 26.125 7.41026 26.1876 7.29891 26.2989C7.18756 26.4103 7.125 26.5613 7.125 26.7188C7.125 26.8762 7.18756 27.0272 7.29891 27.1386C7.41026 27.2499 7.56128 27.3125 7.71875 27.3125H8.3125V27.9062C8.3125 28.0637 8.37506 28.2147 8.48641 28.3261C8.59776 28.4374 8.74878 28.5 8.90625 28.5C9.06372 28.5 9.21474 28.4374 9.32609 28.3261C9.43744 28.2147 9.5 28.0637 9.5 27.9062V27.3125H24.9375V27.9062C24.9375 28.0637 25.0001 28.2147 25.1114 28.3261C25.2228 28.4374 25.3738 28.5 25.5312 28.5C25.6887 28.5 25.8397 28.4374 25.9511 28.3261C26.0624 28.2147 26.125 28.0637 26.125 27.9062V27.3125H26.7188C26.8762 27.3125 27.0272 27.2499 27.1386 27.1386C27.2499 27.0272 27.3125 26.8762 27.3125 26.7188C27.3125 26.5613 27.2499 26.4103 27.1386 26.2989C27.0272 26.1876 26.8762 26.125 26.7188 26.125Z" fill="#B98A2E"/>
</svg>
