<svg width="38" height="38" viewBox="0 0 38 38" fill="none" xmlns="http://www.w3.org/2000/svg">
<path d="M35.517 7.49846C35.5055 7.3776 35.4591 7.26269 35.3834 7.16778C35.3077 7.07288 35.206 7.00209 35.0907 6.96409L19.1603 2.4979C19.0486 2.47621 18.9335 2.47803 18.8225 2.50324L2.89219 7.49074C2.73987 7.54976 2.61357 7.66112 2.53594 7.80484C2.50759 7.88671 2.4877 7.97126 2.47656 8.05718V34.9303C2.47656 35.0878 2.53912 35.2388 2.65047 35.3501C2.76182 35.4615 2.91284 35.5241 3.07031 35.5241H34.9303C35.0878 35.5241 35.2388 35.4615 35.3502 35.3501C35.4615 35.2388 35.5241 35.0878 35.5241 34.9303C35.5271 34.9089 35.5312 7.51865 35.517 7.49846ZM12.4919 34.3366L27.5963 26.9266L31.1202 28.7672L19.7719 34.3366H12.4919ZM19.5938 21.4011V3.85284L34.3366 7.98474V29.1104L19.5938 21.4011ZM7.31325 26.8042L7.19984 13.2566L14.9507 10.3562V23.0773L7.31325 26.8042ZM15.8828 9.01193C15.8041 8.9573 15.7132 8.92255 15.6181 8.91066C15.523 8.89877 15.4264 8.91009 15.3366 8.94365L6.39472 12.2906C6.28069 12.3332 6.18251 12.4098 6.11348 12.5101C6.04445 12.6103 6.0079 12.7294 6.00878 12.8511L6.1305 27.3814L3.66347 28.5885V8.49062L18.4063 3.87778V21.3898L16.1382 22.4972V9.49999C16.1382 9.40407 16.115 9.30956 16.0705 9.22457C16.0261 9.13957 15.9617 9.06661 15.8828 9.01193ZM3.66347 29.9101L18.9911 22.4289L21.7871 23.8913L3.66347 32.7839V29.9101ZM3.66347 34.1068L23.0922 24.5706L26.2913 26.2437L9.79691 34.3366H3.66347V34.1068ZM22.4675 34.3366L32.4259 29.45L34.3366 30.4493V34.3366H22.4675Z" fill="#B98A2E"/>
<path d="M25.7177 7.73063L21.5359 6.55382C21.4477 6.52973 21.3551 6.52621 21.2654 6.54354C21.1756 6.56086 21.091 6.59857 21.0181 6.65376C20.9451 6.70894 20.8859 6.78013 20.8448 6.86183C20.8038 6.94353 20.782 7.03357 20.7813 7.125V18.9127C20.7812 19.0276 20.8145 19.14 20.8771 19.2363C20.9398 19.3327 21.029 19.4088 21.1339 19.4554L25.3163 21.3156C25.4067 21.3548 25.5054 21.371 25.6036 21.3628C25.7019 21.3546 25.7965 21.3222 25.8791 21.2685C25.9618 21.2149 26.0299 21.1416 26.0773 21.0552C26.1248 20.9688 26.1501 20.8721 26.1511 20.7735V8.30182C26.151 8.17238 26.1086 8.04652 26.0304 7.94341C25.9521 7.8403 25.8423 7.76558 25.7177 7.73063ZM24.9636 19.8603L21.9688 18.525V7.90875L24.9636 8.75129V19.8603Z" fill="#B98A2E"/>
<path d="M32.1968 9.7185L28.0144 8.47697C27.9259 8.45166 27.8327 8.44712 27.7421 8.46371C27.6516 8.48029 27.566 8.51755 27.4922 8.57259C27.4184 8.62763 27.3582 8.69896 27.3165 8.78103C27.2747 8.8631 27.2525 8.9537 27.2515 9.04578V21.4854C27.2515 21.5982 27.2837 21.7087 27.3443 21.8039C27.4049 21.899 27.4913 21.975 27.5935 22.0228L31.7758 23.9875C31.8664 24.0287 31.9658 24.0467 32.065 24.0397C32.1643 24.0328 32.2602 24.0013 32.3442 23.9479C32.4281 23.8945 32.4975 23.8211 32.5459 23.7342C32.5943 23.6473 32.6202 23.5496 32.6213 23.4502V10.2879C32.6214 10.1599 32.5801 10.0353 32.5036 9.93273C32.4271 9.83012 32.3195 9.75498 32.1968 9.7185ZM31.4338 22.5144L28.4407 21.1078V9.84141L31.4356 10.732L31.4338 22.5144Z" fill="#B98A2E"/>
<path d="M22.9489 13.664C23.2357 13.718 24.1364 12.8826 24.3739 12.7496C24.4363 12.7028 24.4889 12.6442 24.5286 12.5771C24.5683 12.51 24.5944 12.4358 24.6055 12.3586C24.6165 12.2814 24.6122 12.2028 24.5929 12.1272C24.5735 12.0517 24.5395 11.9807 24.4927 11.9183C24.4459 11.856 24.3873 11.8034 24.3202 11.7637C24.2531 11.724 24.1788 11.6978 24.1017 11.6868C24.0245 11.6758 23.9459 11.6801 23.8703 11.6994C23.7948 11.7188 23.7238 11.7528 23.6614 11.7996L22.5927 12.5964C22.4956 12.6724 22.4244 12.7766 22.3889 12.8947C22.3533 13.0127 22.3552 13.1389 22.3942 13.2559C22.4333 13.3728 22.5075 13.4748 22.6069 13.5479C22.7062 13.621 22.8257 13.6615 22.9489 13.664Z" fill="#B98A2E"/>
<path d="M23.5272 14.0719L22.7654 14.6389C22.6682 14.715 22.5969 14.8192 22.5613 14.9374C22.5257 15.0556 22.5275 15.1819 22.5666 15.299C22.6056 15.416 22.6799 15.5182 22.7793 15.5914C22.8787 15.6645 22.9983 15.7052 23.1217 15.7077C23.4097 15.7492 24.0123 15.1555 24.2379 15.0225C24.3585 14.9263 24.4369 14.7869 24.4565 14.634C24.4761 14.481 24.4354 14.3264 24.3431 14.2029C24.2507 14.0794 24.114 13.9966 23.9617 13.9722C23.8094 13.9477 23.6536 13.9835 23.5272 14.0719Z" fill="#B98A2E"/>
<path d="M29.4198 15.8234C29.7066 15.8775 30.6073 15.0421 30.8448 14.9085C30.9708 14.814 31.054 14.6733 31.0763 14.5174C31.0986 14.3616 31.058 14.2032 30.9635 14.0772C30.869 13.9512 30.7284 13.868 30.5725 13.8457C30.4166 13.8234 30.2583 13.864 30.1323 13.9585L29.0635 14.7553C28.9665 14.8314 28.8955 14.9356 28.86 15.0537C28.8245 15.1718 28.8264 15.2979 28.8654 15.4148C28.9044 15.5318 28.9786 15.6338 29.0779 15.707C29.1771 15.7801 29.2965 15.8208 29.4198 15.8234Z" fill="#B98A2E"/>
<path d="M29.9968 16.2301L29.2357 16.7978C29.1384 16.8738 29.0671 16.9781 29.0315 17.0962C28.9959 17.2144 28.9978 17.3407 29.0368 17.4578C29.0758 17.5749 29.1501 17.677 29.2495 17.7502C29.3489 17.8234 29.4685 17.864 29.5919 17.8665C29.8799 17.9081 30.4825 17.3143 30.7076 17.1813C30.8312 17.0862 30.9125 16.9462 30.9337 16.7916C30.955 16.6371 30.9146 16.4803 30.8212 16.3553C30.7278 16.2303 30.5889 16.1471 30.4347 16.1237C30.2804 16.1003 30.1231 16.1385 29.9968 16.2301Z" fill="#B98A2E"/>
</svg>
