<svg width="38" height="38" viewBox="0 0 38 38" fill="none" xmlns="http://www.w3.org/2000/svg">
<g clip-path="url(#clip0_212_697)">
<path d="M14.3938 10.1909L15.2574 11.7455L16.812 12.6091L15.2574 13.4727L14.3938 15.0273L13.5301 13.4727L11.9756 12.6091L13.5301 11.7455L14.3938 10.1909Z" stroke="#B98A2E" stroke-miterlimit="10" stroke-linecap="round" stroke-linejoin="round"/>
<path d="M13.4725 19.8061L14.2786 21.2455L15.6604 21.9939L14.2786 22.8L13.4725 24.1818L12.7241 22.8L11.2847 21.9939L12.7241 21.2455L13.4725 19.8061Z" stroke="#B98A2E" stroke-miterlimit="10" stroke-linecap="round" stroke-linejoin="round"/>
<path d="M20.2666 1.61212L27.1757 6.90909L25.3332 8.92424L18.9999 4.08788L3.39686 16.0636C2.53323 16.7545 1.20898 16.1212 1.20898 14.9697C1.20898 14.5667 1.38171 14.1636 1.72717 13.8758L4.4908 11.7455L9.61505 7.77273L17.6757 1.55454C18.4817 1.03636 19.5181 1.03636 20.2666 1.61212Z" stroke="#B98A2E" stroke-miterlimit="10" stroke-linecap="round" stroke-linejoin="round"/>
<path d="M36.7907 15.0273C36.7907 16.1788 35.5241 16.8121 34.6029 16.1212L27.9241 10.9394L29.9968 9.09695L36.2726 13.9333C36.5604 14.2212 36.7907 14.5667 36.7907 15.0273Z" stroke="#B98A2E" stroke-miterlimit="10" stroke-linecap="round" stroke-linejoin="round"/>
<path d="M9.67258 4.0303V7.8303L4.54834 11.803V4.0303H9.67258Z" stroke="#B98A2E" stroke-miterlimit="10" stroke-linecap="round" stroke-linejoin="round"/>
<path d="M3.33936 1.32425H10.6515V3.97273H3.33936V1.32425Z" stroke="#B98A2E" stroke-miterlimit="10" stroke-linecap="round" stroke-linejoin="round"/>
<path d="M3.6272 16.0636V36.8485H34.3727V16.3515" stroke="#B98A2E" stroke-miterlimit="10" stroke-linecap="round" stroke-linejoin="round"/>
<path d="M21.4756 32.0697H5.87256V24.8727H8.92407V29.0182H18.4241V24.8727H21.4756V32.0697Z" stroke="#B98A2E" stroke-miterlimit="10" stroke-linecap="round" stroke-linejoin="round"/>
<path d="M19.8633 18.4242C19.9784 18.6545 20.036 18.8848 20.036 19.1727V24.8727" stroke="#B98A2E" stroke-miterlimit="10" stroke-linecap="round" stroke-linejoin="round"/>
<path d="M7.427 24.8727V19.1727C7.427 18.2515 8.17549 17.503 9.0967 17.503H17.7906" stroke="#B98A2E" stroke-miterlimit="10" stroke-linecap="round" stroke-linejoin="round"/>
<path d="M8.92407 26.4273H18.4241" stroke="#B98A2E" stroke-miterlimit="10" stroke-linecap="round" stroke-linejoin="round"/>
<path d="M8.23315 32.0697H10.8816V34.7182H8.23315V32.0697Z" stroke="#B98A2E" stroke-miterlimit="10" stroke-linecap="round" stroke-linejoin="round"/>
<path d="M16.4089 32.0697H19.0574V34.7182H16.4089V32.0697Z" stroke="#B98A2E" stroke-miterlimit="10" stroke-linecap="round" stroke-linejoin="round"/>
<path d="M26.8879 32.703V23.4909H29.3061V32.703" stroke="#B98A2E" stroke-miterlimit="10" stroke-linecap="round" stroke-linejoin="round"/>
<path d="M32.1272 23.4909H24.009L26.4848 17.3879H29.6515L32.1272 23.4909Z" stroke="#B98A2E" stroke-miterlimit="10" stroke-linecap="round" stroke-linejoin="round"/>
<path d="M31.2061 23.4909V28.8455" stroke="#B98A2E" stroke-miterlimit="10" stroke-linecap="round" stroke-linejoin="round"/>
<path d="M30.5728 34.8333H25.6213C25.3334 34.8333 25.1606 34.603 25.1606 34.3727V33.1636C25.1606 32.8758 25.3909 32.703 25.6213 32.703H30.5728C30.8606 32.703 31.0334 32.9333 31.0334 33.1636V34.3727C31.0334 34.603 30.8031 34.8333 30.5728 34.8333Z" stroke="#B98A2E" stroke-miterlimit="10" stroke-linecap="round" stroke-linejoin="round"/>
<path d="M23.5484 14.797L34.6606 4.89394C35.5818 4.08788 35.6393 2.64848 34.7181 1.78485C33.8545 0.921212 32.4151 0.978787 31.609 1.9L21.6484 13.0121" stroke="#B98A2E" stroke-miterlimit="10" stroke-linecap="round" stroke-linejoin="round"/>
<path d="M19.1726 13.8182C18.1363 14.8545 17.5029 19.3454 17.5029 19.3454C17.5029 19.3454 18.5969 18.7697 21.706 17.9636C23.9514 17.3879 24.2969 14.1636 22.1666 13.2424C21.1302 12.7818 19.9787 13.0121 19.1726 13.8182Z" stroke="#B98A2E" stroke-miterlimit="10" stroke-linecap="round" stroke-linejoin="round"/>
</g>
<defs>
<clipPath id="clip0_212_697">
<rect width="38" height="38" fill="white"/>
</clipPath>
</defs>
</svg>
