<svg width="38" height="38" viewBox="0 0 38 38" fill="none" xmlns="http://www.w3.org/2000/svg">
<g clip-path="url(#clip0_212_781)">
<path fill-rule="evenodd" clip-rule="evenodd" d="M35.2172 38H5.85453C3.87328 38 2.29272 36.3972 2.29272 34.4604V31.3884C2.29272 31.0767 2.55986 30.8319 2.84926 30.8319C3.16091 30.8319 3.40579 31.0767 3.40579 31.3884V34.4604C3.40579 35.8184 4.51885 36.9314 5.89905 36.9314H34.7051V9.79495H9.41633C9.10468 9.79495 8.8598 9.52781 8.8598 9.23842C8.8598 8.92676 9.10468 8.68188 9.41633 8.68188H35.1949C35.5065 8.68188 35.7514 8.92676 35.7514 9.23842V37.4435C35.7514 37.7551 35.5065 38 35.2172 38Z" fill="#B98A2E"/>
<path fill-rule="evenodd" clip-rule="evenodd" d="M9.41642 34.9725C9.10476 34.9725 8.85989 34.7276 8.85989 34.4159C8.85989 33.3919 7.591 32.546 6.09949 32.546C4.63025 32.546 3.36135 33.3919 3.36135 34.4159C3.36135 34.7276 3.11648 34.9725 2.80482 34.9725C2.49317 34.9725 2.24829 34.7276 2.24829 34.4159V9.372C2.24829 7.27944 3.96241 5.58759 6.07723 5.58759H9.3719C9.68356 5.58759 9.92843 5.83246 9.92843 6.14412V34.4605C9.97295 34.7276 9.72808 34.9725 9.41642 34.9725ZM6.14401 31.4775C7.21256 31.4775 8.16979 31.8336 8.88215 32.3902V6.65613H6.14401C4.63025 6.65613 3.38362 7.90276 3.38362 9.372V32.3902C4.07372 31.8336 5.05321 31.4775 6.14401 31.4775Z" fill="#B98A2E"/>
<path fill-rule="evenodd" clip-rule="evenodd" d="M31.2993 35.3286H13.3122C13.0005 35.3286 12.7556 35.0615 12.7556 34.7721V21.215H12.5108C12.2881 21.215 12.0655 21.1037 11.9987 20.8811C11.9097 20.6584 11.9765 20.4581 12.1546 20.3023L21.9718 11.5536C22.1721 11.3532 22.4838 11.3532 22.6842 11.5536L32.4791 20.3023C32.6349 20.4581 32.7017 20.703 32.6349 20.8811C32.5459 21.1037 32.3456 21.215 32.1452 21.215H31.8558V34.7944C31.8335 35.0615 31.6109 35.3286 31.2993 35.3286ZM13.8687 34.2378H30.765V20.6584C30.765 20.5026 30.8318 20.3913 30.9208 20.3023L22.3057 12.6666L13.7351 20.3245C13.8242 20.4136 13.8687 20.5471 13.8687 20.6584V34.2378Z" fill="#B98A2E"/>
<path fill-rule="evenodd" clip-rule="evenodd" d="M25.1997 35.3286C24.9103 35.3286 24.6432 35.0615 24.6432 34.7721V28.6502C24.6432 28.3608 24.3983 28.1159 24.1312 28.1159H20.4803C20.1687 28.1159 19.9461 28.3386 19.9461 28.6502V34.7721C19.9461 35.0615 19.7012 35.3286 19.3895 35.3286C19.1001 35.3286 18.833 35.0615 18.833 34.7721V28.6502C18.833 27.7375 19.5454 27.0251 20.4581 27.0251H24.1312C25.0216 27.0251 25.734 27.7375 25.734 28.6502V34.7721C25.7563 35.0615 25.5114 35.3286 25.1997 35.3286Z" fill="#B98A2E"/>
<path fill-rule="evenodd" clip-rule="evenodd" d="M22.3058 35.3286C21.9941 35.3286 21.7493 35.0615 21.7493 34.7721V27.5817C21.7493 27.27 21.9941 27.0251 22.3058 27.0251C22.6175 27.0251 22.8623 27.27 22.8623 27.5817V34.7943C22.8623 35.0615 22.6175 35.3286 22.3058 35.3286Z" fill="#B98A2E"/>
<path fill-rule="evenodd" clip-rule="evenodd" d="M22.3057 22.7287C20.7252 22.7287 19.4563 21.4599 19.4563 19.9016C19.4563 18.321 20.7252 17.0521 22.3057 17.0521C23.8863 17.0521 25.1552 18.321 25.1552 19.9016C25.1774 21.4599 23.8863 22.7287 22.3057 22.7287ZM22.3057 18.1652C21.3485 18.1652 20.5471 18.9443 20.5471 19.9238C20.5471 20.8811 21.304 21.6825 22.3057 21.6825C23.2852 21.6825 24.0644 20.9033 24.0644 19.9238C24.0866 18.9443 23.2852 18.1652 22.3057 18.1652Z" fill="#B98A2E"/>
<path fill-rule="evenodd" clip-rule="evenodd" d="M31.0322 9.79495C30.7206 9.79495 30.4757 9.52781 30.4757 9.23841V8.25892H28.5167C28.2718 8.25892 28.0492 8.08083 27.9824 7.85821C27.8711 7.30168 27.6263 6.74515 27.3146 6.23314C27.181 6.01053 27.2256 5.74339 27.4036 5.58756L28.8061 4.1851L27.4036 2.8049L26.0234 4.1851C25.8231 4.36319 25.5782 4.40772 25.3556 4.27415C24.8659 3.96249 24.3093 3.76214 23.7305 3.60631C23.4857 3.53953 23.3298 3.31691 23.3298 3.07204V1.06852H21.4154V3.04978C21.4154 3.29465 21.215 3.51727 21.0147 3.56179C20.3913 3.71762 19.8348 3.94023 19.3451 4.25189C19.1224 4.36319 18.8331 4.34093 18.6772 4.16284L17.2302 2.8049L15.85 4.16284L17.2302 5.54304C17.4306 5.74339 17.4529 6.01053 17.3193 6.18862C16.9854 6.74515 16.7628 7.30168 16.6514 7.83595C16.5847 8.08083 16.3621 8.23666 16.1172 8.23666H14.1804V9.19389C14.1804 9.50555 13.9356 9.75042 13.6239 9.75042C13.3123 9.75042 13.0674 9.50555 13.0674 9.19389V8.05857C13.0674 7.56882 13.4681 7.14585 13.9578 7.14585H15.6942C15.8055 6.74515 15.9613 6.38897 16.184 5.98827L14.9373 4.74164C14.7815 4.58581 14.6925 4.34093 14.6925 4.09606C14.6925 3.85118 14.7815 3.62857 14.9373 3.45048L16.6069 1.86993C16.9631 1.53601 17.5196 1.53601 17.8536 1.86993L19.1002 3.11656C19.4564 2.91621 19.8571 2.76038 20.2578 2.64908V0.890435C20.2578 0.378425 20.6585 -0.0222778 21.1705 -0.0222778H23.4411C23.9531 -0.0222778 24.3539 0.378425 24.3539 0.890435V2.60455C24.7546 2.73812 25.1553 2.89395 25.5114 3.07204L26.7581 1.84767C27.092 1.49149 27.6485 1.49149 27.9824 1.84767L29.6298 3.47274C29.9637 3.82892 29.9637 4.40772 29.6298 4.74164L28.3831 5.98827C28.6058 6.38897 28.7616 6.74515 28.8952 7.14585H30.6093C31.1213 7.14585 31.522 7.56882 31.522 8.05857V9.19389C31.5442 9.52781 31.2994 9.79495 31.0322 9.79495Z" fill="#B98A2E"/>
<path fill-rule="evenodd" clip-rule="evenodd" d="M25.8674 9.79492C25.5558 9.79492 25.3109 9.52779 25.3109 9.23839C25.3109 7.5688 23.953 6.1886 22.2834 6.1886C20.636 6.1886 19.2781 7.5688 19.2781 9.23839C19.2781 9.52779 19.0332 9.79492 18.7216 9.79492C18.4099 9.79492 18.165 9.52779 18.165 9.23839C18.165 6.96774 19.9905 5.12006 22.2389 5.12006C24.5095 5.12006 26.3572 6.96774 26.3572 9.23839C26.424 9.52779 26.1791 9.79492 25.8674 9.79492Z" fill="#B98A2E"/>
</g>
<defs>
<clipPath id="clip0_212_781">
<rect width="38" height="38" fill="white"/>
</clipPath>
</defs>
</svg>
