<svg width="38" height="38" viewBox="0 0 38 38" fill="none" xmlns="http://www.w3.org/2000/svg">
<g clip-path="url(#clip0_212_932)">
<path d="M12.4124 24.5879L13.412 25.5875C13.7207 25.896 14.1263 26.0885 14.5604 26.1327C14.9946 26.1768 15.4306 26.0698 15.795 25.8298C16.005 25.9286 16.2196 26.0178 16.4374 26.0966C16.5259 26.5236 16.7586 26.9071 17.0966 27.1826C17.4346 27.4581 17.8571 27.6088 18.2931 27.6094H19.7069C20.1429 27.6088 20.5654 27.4581 20.9034 27.1826C21.2414 26.9071 21.4741 26.5236 21.5626 26.0966C21.7804 26.0178 21.9951 25.9286 22.2051 25.8298C22.5695 26.0698 23.0055 26.1768 23.4396 26.1327C23.8738 26.0885 24.2794 25.896 24.588 25.5875L25.5876 24.5879C25.8956 24.2791 26.0878 23.8736 26.1319 23.4396C26.176 23.0057 26.0692 22.5698 25.8296 22.2054C25.9285 21.9953 26.0177 21.7805 26.0966 21.5626C26.5236 21.4741 26.9071 21.2414 27.1826 20.9034C27.4581 20.5654 27.6088 20.1429 27.6094 19.7069V18.2931C27.6088 17.8571 27.4581 17.4346 27.1826 17.0966C26.9071 16.7586 26.5236 16.5259 26.0966 16.4374C26.0177 16.2194 25.9286 16.0051 25.8295 15.7944C26.0691 15.43 26.1759 14.9942 26.1318 14.5603C26.0878 14.1264 25.8956 13.7209 25.5876 13.4121L24.588 12.4124C24.2793 12.104 23.8737 11.9114 23.4396 11.8673C23.0054 11.8232 22.5694 11.9301 22.2049 12.1702C21.9949 12.0714 21.7803 11.9822 21.5626 11.9034C21.4741 11.4764 21.2413 11.0929 20.9034 10.8174C20.5654 10.5419 20.1429 10.3912 19.7069 10.3906H18.2931C17.8571 10.3912 17.4346 10.5419 17.0966 10.8174C16.7586 11.0929 16.5259 11.4764 16.4374 11.9034C16.2197 11.9822 16.005 12.0714 15.7949 12.1702C15.4306 11.9302 14.9945 11.8232 14.5604 11.8673C14.1262 11.9114 13.7206 12.104 13.412 12.4125L12.4124 13.4121C12.1044 13.7209 11.9122 14.1264 11.8681 14.5603C11.824 14.9943 11.9308 15.4302 12.1704 15.7946C12.0715 16.0047 11.9823 16.2195 11.9034 16.4374C11.4764 16.5259 11.0929 16.7587 10.8174 17.0966C10.5419 17.4346 10.3912 17.8571 10.3906 18.2931V19.7069C10.3912 20.1429 10.5419 20.5654 10.8174 20.9034C11.0929 21.2414 11.4764 21.4741 11.9034 21.5626C11.9821 21.7798 12.0709 21.9939 12.1694 22.2034C11.9296 22.5682 11.8228 23.0045 11.8671 23.4388C11.9114 23.8731 12.1039 24.279 12.4124 24.5879ZM11.5781 19.7069V18.2931C11.5781 18.2003 11.5964 18.1084 11.6319 18.0226C11.6675 17.9369 11.7195 17.859 11.7852 17.7933C11.8508 17.7277 11.9287 17.6756 12.0145 17.6401C12.1002 17.6046 12.1922 17.5863 12.285 17.5863C12.4286 17.5865 12.5684 17.5409 12.6842 17.4559C12.7999 17.371 12.8855 17.2512 12.9283 17.1142C13.0434 16.7442 13.1923 16.3855 13.3732 16.0428C13.4403 15.9155 13.4649 15.7701 13.4432 15.6278C13.4216 15.4855 13.355 15.3539 13.2531 15.2523L13.2521 15.2514C13.1196 15.1188 13.0451 14.939 13.0451 14.7516C13.0451 14.5641 13.1196 14.3843 13.2521 14.2518L14.2517 13.2521C14.3843 13.1196 14.5641 13.0451 14.7516 13.0451C14.939 13.0451 15.1188 13.1196 15.2514 13.2521L15.2523 13.2531C15.3539 13.355 15.4855 13.4217 15.6278 13.4433C15.7701 13.4649 15.9156 13.4404 16.0429 13.3732C16.3856 13.1923 16.7442 13.0434 17.1142 12.9283C17.2512 12.8855 17.371 12.7999 17.4559 12.6842C17.5409 12.5684 17.5866 12.4285 17.5863 12.285C17.5863 12.0975 17.6608 11.9177 17.7933 11.7852C17.9259 11.6526 18.1057 11.5781 18.2931 11.5781H19.7069C19.7997 11.5781 19.8916 11.5964 19.9774 11.6319C20.0631 11.6675 20.141 11.7195 20.2067 11.7852C20.2723 11.8508 20.3244 11.9287 20.3599 12.0145C20.3954 12.1002 20.4137 12.1922 20.4137 12.285C20.4135 12.4286 20.4591 12.5684 20.5441 12.6842C20.629 12.7999 20.7488 12.8855 20.8858 12.9283C21.2558 13.0434 21.6145 13.1923 21.9571 13.3732C22.0844 13.4404 22.2299 13.4649 22.3722 13.4433C22.5145 13.4217 22.6461 13.355 22.7477 13.2531L22.7486 13.2521C22.8812 13.1196 23.061 13.0451 23.2485 13.0451C23.4359 13.0451 23.6157 13.1196 23.7483 13.2521L24.7479 14.2518C24.8804 14.3843 24.9549 14.5641 24.9549 14.7516C24.9549 14.939 24.8804 15.1188 24.7479 15.2514L24.7469 15.2523C24.645 15.3539 24.5784 15.4855 24.5568 15.6278C24.5351 15.7701 24.5597 15.9155 24.6268 16.0428C24.8077 16.3855 24.9566 16.7442 25.0717 17.1142C25.1145 17.2512 25.2001 17.371 25.3158 17.4559C25.4316 17.5409 25.5714 17.5866 25.715 17.5863C25.8078 17.5863 25.8998 17.6046 25.9855 17.6401C26.0713 17.6756 26.1492 17.7277 26.2148 17.7933C26.2805 17.859 26.3325 17.9369 26.3681 18.0226C26.4036 18.1084 26.4219 18.2003 26.4219 18.2931V19.7069C26.4219 19.7997 26.4036 19.8916 26.3681 19.9774C26.3325 20.0631 26.2805 20.141 26.2148 20.2067C26.1492 20.2723 26.0713 20.3244 25.9855 20.3599C25.8998 20.3954 25.8078 20.4137 25.715 20.4137C25.5714 20.4135 25.4316 20.4591 25.3158 20.5441C25.2001 20.629 25.1145 20.7488 25.0717 20.8858C24.9566 21.2558 24.8076 21.6145 24.6268 21.9572C24.5597 22.0845 24.5351 22.2299 24.5568 22.3722C24.5784 22.5145 24.645 22.6461 24.7469 22.7477L24.7479 22.7486C24.8804 22.8812 24.9549 23.061 24.9549 23.2484C24.9549 23.4359 24.8804 23.6157 24.7479 23.7482L23.7483 24.7479C23.6157 24.8804 23.4359 24.9549 23.2484 24.9549C23.061 24.9549 22.8812 24.8804 22.7486 24.7479L22.7477 24.7469C22.6461 24.645 22.5145 24.5783 22.3722 24.5567C22.2299 24.5351 22.0845 24.5596 21.9572 24.6268C21.6145 24.8077 21.2558 24.9566 20.8858 25.0717C20.7488 25.1145 20.629 25.2001 20.5441 25.3158C20.4591 25.4316 20.4135 25.5714 20.4137 25.715C20.4137 25.8078 20.3954 25.8998 20.3599 25.9855C20.3244 26.0713 20.2723 26.1492 20.2067 26.2148C20.141 26.2805 20.0631 26.3325 19.9774 26.3681C19.8916 26.4036 19.7997 26.4219 19.7069 26.4219H18.2931C18.2003 26.4219 18.1084 26.4036 18.0226 26.3681C17.9369 26.3325 17.859 26.2805 17.7933 26.2148C17.7277 26.1492 17.6756 26.0713 17.6401 25.9855C17.6046 25.8998 17.5863 25.8078 17.5863 25.715C17.5865 25.5714 17.5409 25.4316 17.4559 25.3158C17.371 25.2001 17.2512 25.1145 17.1142 25.0717C16.7442 24.9566 16.3855 24.8077 16.0428 24.6268C15.9155 24.5596 15.7701 24.5351 15.6278 24.5567C15.4855 24.5783 15.3539 24.645 15.2523 24.7469L15.2514 24.7479C15.1857 24.8135 15.1078 24.8656 15.0221 24.9011C14.9363 24.9366 14.8444 24.9549 14.7516 24.9549C14.6587 24.9549 14.5668 24.9366 14.4811 24.9011C14.3953 24.8656 14.3174 24.8135 14.2517 24.7479L13.2521 23.7482C13.1196 23.6157 13.0451 23.4359 13.0451 23.2484C13.0451 23.0609 13.1196 22.8812 13.2521 22.7486L13.2531 22.7477C13.355 22.646 13.4216 22.5145 13.4432 22.3722C13.4649 22.2299 13.4403 22.0845 13.3732 21.9571C13.1924 21.6144 13.0434 21.2558 12.9283 20.8858C12.8855 20.7488 12.7999 20.629 12.6842 20.5441C12.5684 20.4591 12.4286 20.4134 12.285 20.4137C12.1922 20.4137 12.1002 20.3954 12.0145 20.3599C11.9287 20.3244 11.8508 20.2723 11.7852 20.2067C11.7195 20.141 11.6675 20.0631 11.6319 19.9774C11.5964 19.8916 11.5781 19.7997 11.5781 19.7069Z" fill="#B98A2E"/>
<path d="M19 23.75C19.9395 23.75 20.8578 23.4714 21.639 22.9495C22.4201 22.4275 23.0289 21.6857 23.3884 20.8177C23.7479 19.9498 23.842 18.9947 23.6587 18.0733C23.4755 17.1519 23.0231 16.3055 22.3588 15.6412C21.6945 14.9769 20.8481 14.5246 19.9267 14.3413C19.0053 14.158 18.0502 14.2521 17.1823 14.6116C16.3143 14.9711 15.5725 15.5799 15.0505 16.361C14.5286 17.1422 14.25 18.0605 14.25 19C14.2514 20.2593 14.7523 21.4667 15.6428 22.3572C16.5333 23.2477 17.7407 23.7486 19 23.75ZM19 15.4375C19.7046 15.4375 20.3934 15.6464 20.9792 16.0379C21.5651 16.4293 22.0217 16.9857 22.2913 17.6367C22.561 18.2877 22.6315 19.004 22.494 19.695C22.3566 20.3861 22.0173 21.0208 21.5191 21.5191C21.0208 22.0173 20.3861 22.3566 19.695 22.4941C19.004 22.6315 18.2877 22.561 17.6367 22.2913C16.9857 22.0217 16.4293 21.5651 16.0379 20.9792C15.6464 20.3934 15.4375 19.7046 15.4375 19C15.4385 18.0555 15.8142 17.1499 16.4821 16.4821C17.1499 15.8142 18.0555 15.4385 19 15.4375Z" fill="#B98A2E"/>
<path d="M4.15625 7.71874C4.23424 7.7188 4.31147 7.70348 4.38353 7.67366C4.4556 7.64384 4.52107 7.60011 4.57622 7.54496C4.63137 7.48982 4.6751 7.42434 4.70492 7.35228C4.73474 7.28021 4.75006 7.20298 4.75 7.12499V5.93749H19C21.9813 5.93684 24.8731 6.95626 27.195 8.8264C29.5168 10.6965 31.1289 13.3048 31.7633 16.2178C32.3978 19.1308 32.0165 22.1733 30.6828 24.8396C29.349 27.506 27.1431 29.6357 24.4316 30.875H26.8651C29.4188 29.1855 31.3601 26.718 32.4012 23.8384C33.4424 20.9589 33.528 17.8204 32.6453 14.8884C31.7626 11.9564 29.9586 9.38684 27.5007 7.56066C25.0429 5.73448 22.062 4.74889 19 4.74999H4.15625C3.99878 4.75 3.84776 4.81256 3.73641 4.9239C3.62507 5.03525 3.56251 5.18627 3.5625 5.34374V5.77514L1.4725 3.85936L3.5625 1.9436V2.37499C3.56251 2.53246 3.62507 2.68348 3.73641 2.79483C3.84776 2.90617 3.99878 2.96873 4.15625 2.96874H19C22.2381 2.96726 25.4006 3.94683 28.0709 5.77837C30.7412 7.60992 32.794 10.2075 33.9587 13.2288C35.1235 16.2502 35.3455 19.5535 34.5956 22.7035C33.8457 25.8536 32.1591 28.7025 29.7579 30.875H31.4509C33.7801 28.4382 35.3422 25.3708 35.9432 22.0538C36.5441 18.7368 36.1574 15.3164 34.8311 12.2173C33.5048 9.11819 31.2974 6.47697 28.4829 4.62164C25.6685 2.76631 22.371 1.77862 19 1.78124H4.75V0.59374C4.75003 0.478486 4.71652 0.365715 4.65355 0.269185C4.59057 0.172654 4.50087 0.0965385 4.39538 0.0501234C4.28988 0.00370826 4.17316 -0.0109993 4.05945 0.00779514C3.94574 0.0265896 3.83995 0.0780734 3.75501 0.155965L0.192505 3.42159C0.131834 3.47724 0.0833911 3.54489 0.0502518 3.62025C0.0171126 3.69561 0 3.77704 0 3.85936C0 3.94169 0.0171126 4.02312 0.0502518 4.09848C0.0833911 4.17384 0.131834 4.24149 0.192505 4.29714L3.75501 7.56276C3.86454 7.66311 4.0077 7.71876 4.15625 7.71874Z" fill="#B98A2E"/>
<path d="M17.9641 20.3136C18.0753 20.4231 18.225 20.4844 18.381 20.4844C18.5371 20.4843 18.6868 20.4229 18.7979 20.3133L20.6044 18.5321C20.6599 18.4773 20.7041 18.4122 20.7344 18.3403C20.7647 18.2685 20.7806 18.1914 20.7812 18.1135C20.7817 18.0355 20.7669 17.9582 20.7375 17.886C20.7082 17.8137 20.6649 17.748 20.6102 17.6925C20.5554 17.6369 20.4903 17.5928 20.4185 17.5624C20.3466 17.5321 20.2695 17.5162 20.1916 17.5157C20.1136 17.5151 20.0363 17.53 19.9641 17.5593C19.8918 17.5886 19.8261 17.6319 19.7706 17.6867L18.4211 19.0173L18.3684 19.0444L18.2294 18.9072C18.1738 18.8524 18.108 18.809 18.0357 18.7796C17.9634 18.7502 17.8861 18.7353 17.808 18.7358C17.7299 18.7363 17.6528 18.7522 17.5808 18.7826C17.5089 18.8129 17.4437 18.8572 17.3889 18.9128C17.3341 18.9684 17.2908 19.0342 17.2615 19.1066C17.2322 19.1789 17.2174 19.2563 17.218 19.3344C17.2187 19.4124 17.2346 19.4896 17.2651 19.5615C17.2956 19.6333 17.3399 19.6985 17.3956 19.7532L17.9641 20.3136Z" fill="#B98A2E"/>
<path d="M34.245 30.4372C34.1601 30.3593 34.0543 30.3078 33.9406 30.2891C33.8269 30.2703 33.7101 30.285 33.6046 30.3314C33.4991 30.3778 33.4094 30.4539 33.3465 30.5504C33.2835 30.647 33.25 30.7597 33.25 30.875V32.0625H19C16.0187 32.0632 13.1269 31.0437 10.8051 29.1736C8.48323 27.3035 6.87116 24.6952 6.23668 21.7822C5.6022 18.8692 5.98351 15.8267 7.31726 13.1604C8.65101 10.494 10.8569 8.3643 13.5684 7.125H11.135C8.58125 8.81454 6.63993 11.282 5.59877 14.1616C4.55761 17.0411 4.47204 20.1795 5.35475 23.1116C6.23745 26.0436 8.04143 28.6132 10.4993 30.4393C12.9571 32.2655 15.938 33.2511 19 33.25H33.8438C34.0012 33.25 34.1523 33.1874 34.2636 33.0761C34.375 32.9647 34.4375 32.8137 34.4375 32.6562V32.2249L36.5275 34.1406L34.4375 36.0564V35.625C34.4375 35.4675 34.375 35.3165 34.2636 35.2052C34.1523 35.0938 34.0012 35.0313 33.8438 35.0312H19C15.7619 35.0327 12.5994 34.0532 9.92909 32.2216C7.25878 30.3901 5.20602 27.7925 4.04128 24.7712C2.87655 21.7498 2.65449 18.4465 3.40438 15.2964C4.15427 12.1464 5.84091 9.29746 8.24207 7.125H6.5491C4.21987 9.56183 2.65779 12.6292 2.05685 15.9462C1.45592 19.2632 1.84261 22.6836 3.16889 25.7827C4.49518 28.8818 6.70263 31.523 9.5171 33.3784C12.3316 35.2337 15.629 36.2214 19 36.2188H33.25V37.4062C33.25 37.5215 33.2836 37.6342 33.3466 37.7307C33.4095 37.8272 33.4992 37.9033 33.6047 37.9497C33.7102 37.9961 33.8269 38.0108 33.9406 37.9921C34.0543 37.9733 34.16 37.9219 34.245 37.844L37.8075 34.5784C37.8682 34.5228 37.9166 34.4551 37.9498 34.3797C37.9829 34.3044 38 34.223 38 34.1406C38 34.0583 37.9829 33.9769 37.9498 33.9015C37.9166 33.8261 37.8682 33.7585 37.8075 33.7029L34.245 30.4372Z" fill="#B98A2E"/>
</g>
<defs>
<clipPath id="clip0_212_932">
<rect width="38" height="38" fill="white"/>
</clipPath>
</defs>
</svg>
