<svg width="38" height="38" viewBox="0 0 38 38" fill="none" xmlns="http://www.w3.org/2000/svg">
<g clip-path="url(#clip0_212_823)">
<path d="M37.4434 15.985H34.9843C34.6768 15.985 34.4276 16.2342 34.4276 16.5417V18.3852C34.4276 18.4173 34.4015 18.4434 34.3694 18.4434H26.3773C26.0699 18.4434 25.8207 18.6925 25.8207 19V21.4592C25.8207 21.7667 26.0699 22.0158 26.3773 22.0158H29.5094V23.9183V32.5252V34.4277H19.6148C19.5827 34.4277 19.5566 34.4016 19.5566 34.3695V28.8365C19.5566 28.529 19.3075 28.2799 19 28.2799H16.5409C16.2334 28.2799 15.9843 28.529 15.9843 28.8365V34.3695C15.9843 34.4017 15.9581 34.4277 15.9261 34.4277H15.2532V33.1189C15.2532 32.678 15.0035 32.2947 14.6385 32.1017V30.6808C14.6385 29.3569 13.5613 28.2799 12.2374 28.2799C10.9135 28.2799 9.83643 29.3569 9.83643 30.6808V32.1017C9.47135 32.2947 9.22168 32.678 9.22168 33.1189V34.4277H3.63056C3.59842 34.4277 3.57237 34.4016 3.57237 34.3695V28.1636H8.54881C9.19474 28.1636 9.72021 27.6382 9.72021 26.9922V22.0159H15.9261C15.9582 22.0159 15.9843 22.042 15.9843 22.074V23.9183C15.9843 24.2258 16.2334 24.475 16.5409 24.475H19C19.3075 24.475 19.5566 24.2258 19.5566 23.9183V22.074C19.5566 22.0419 19.5828 22.0159 19.6148 22.0159H21.4591C21.7666 22.0159 22.0157 21.7667 22.0157 21.4592V19C22.0157 18.6925 21.7666 18.4434 21.4591 18.4434H19.6148C19.5827 18.4434 19.5566 18.4172 19.5566 18.3852V16.5408C19.5566 16.2333 19.3075 15.9842 19 15.9842H16.5409C16.2334 15.9842 15.9843 16.2333 15.9843 16.5408V18.3852C15.9843 18.4173 15.9581 18.4434 15.9261 18.4434H15.1578C14.8504 18.4434 14.6012 18.6925 14.6012 19C14.6012 19.3075 14.8504 19.5566 15.1578 19.5566H15.9261C16.572 19.5566 17.0976 19.0312 17.0976 18.3852V17.0975H18.4434V18.3852C18.4434 19.0312 18.9688 19.5566 19.6148 19.5566H20.9024V20.9025H19.6148C18.9688 20.9025 18.4434 21.428 18.4434 22.0739V23.3616H17.0976V22.0739C17.0976 21.428 16.572 20.9025 15.9261 20.9025H3.63056C2.98463 20.9025 2.45909 21.428 2.45909 22.0739V34.3694C2.45909 35.0154 2.98463 35.5409 3.63056 35.5409H15.9261C16.572 35.5409 17.0976 35.0154 17.0976 34.3694V29.3931H18.4434V34.3694C18.4434 35.0154 18.9688 35.5409 19.6148 35.5409H34.3694C35.0154 35.5409 35.5409 35.0154 35.5409 34.3694V22.0739C35.5409 21.428 35.0154 20.9025 34.3694 20.9025H26.934V19.5566H34.3694C35.0154 19.5566 35.5409 19.0312 35.5409 18.3852V17.0983H36.8867V36.8286C36.8867 36.8607 36.8606 36.8867 36.8286 36.8867H1.17139C1.13933 36.8867 1.11328 36.8606 1.11328 36.8286V1.17139C1.11328 1.13941 1.13941 1.11328 1.17139 1.11328H30.1823C30.4898 1.11328 30.739 0.864129 30.739 0.556641C30.739 0.249152 30.4898 0 30.1823 0H1.17139C0.525469 0 0 0.525469 0 1.17139V36.8286C0 37.4745 0.525469 38 1.17139 38H36.8286C37.4745 38 38 37.4745 38 36.8286V16.5417C38 16.2342 37.7508 15.985 37.4434 15.985ZM3.63056 22.0158H5.53301V23.3035C5.53301 23.611 5.78216 23.8601 6.08965 23.8601C6.39714 23.8601 6.64629 23.611 6.64629 23.3035V22.0158H8.60693V26.9922C8.60693 27.0242 8.5808 27.0503 8.54881 27.0503H3.57237V22.0739C3.57237 22.0419 3.59842 22.0158 3.63056 22.0158ZM12.2374 29.3931C12.9475 29.3931 13.5252 29.9707 13.5252 30.6808V31.9685H10.9498V30.6808C10.9497 29.9707 11.5274 29.3931 12.2374 29.3931ZM10.335 34.4276V33.1189C10.335 33.0984 10.3517 33.0817 10.3721 33.0817H14.1028C14.1232 33.0817 14.1399 33.0984 14.1399 33.1189V34.4276H10.335ZM34.4276 31.9685H30.6227V24.4749H34.4277V31.9685H34.4276ZM34.3694 34.4276H30.6227V33.0817H34.4277V34.3694C34.4276 34.4016 34.4016 34.4276 34.3694 34.4276ZM34.4276 22.0739V23.3616H30.6227V22.0158H34.3694C34.4016 22.0158 34.4276 22.0419 34.4276 22.0739Z" fill="#B98A2E"/>
<path d="M36.8285 0H32.4088C32.1013 0 31.8521 0.249152 31.8521 0.556641C31.8521 0.864129 32.1013 1.11328 32.4088 1.11328H36.8285C36.8606 1.11328 36.8866 1.13941 36.8866 1.17139V11.0672L35.5408 11.0673V3.63056C35.5408 2.98463 35.0153 2.45909 34.3693 2.45909H19.6146C18.9687 2.45909 18.4433 2.98463 18.4433 3.63056V11.066H17.0974V3.63056C17.0974 2.98463 16.5719 2.45909 15.926 2.45909H3.63045C2.98453 2.45909 2.45898 2.98463 2.45898 3.63056V18.3852C2.45898 19.0312 2.98453 19.5566 3.63045 19.5566H12.9313C13.2387 19.5566 13.4879 19.3075 13.4879 19C13.4879 18.6925 13.2387 18.4434 12.9313 18.4434H3.63045C3.59832 18.4434 3.57227 18.4172 3.57227 18.3852V3.63056C3.57227 3.59842 3.59839 3.57237 3.63045 3.57237H4.91815V14.7176C4.91815 15.3519 5.43419 15.868 6.06854 15.868H13.488C14.1223 15.868 14.6384 15.3519 14.6384 14.7176V3.57237H15.9261C15.9582 3.57237 15.9842 3.5985 15.9842 3.63056V11.6227C15.9842 11.9301 16.2334 12.1793 16.5409 12.1793H18.9999C19.3074 12.1793 19.5565 11.9301 19.5565 11.6227V3.63056C19.5565 3.59842 19.5827 3.57237 19.6146 3.57237H23.3614V4.88114C23.3614 5.51549 23.8775 6.03154 24.5118 6.03154H30.7017C31.336 6.03154 31.8521 5.51549 31.8521 4.88114V3.57237H34.3693C34.4014 3.57237 34.4275 3.5985 34.4275 3.63056V11.6239C34.4275 11.7715 34.4861 11.9131 34.5904 12.0176C34.6949 12.1219 34.8364 12.1806 34.9841 12.1806L37.4432 12.1805C37.7507 12.1805 37.9998 11.9313 37.9998 11.6238V1.17139C37.9999 0.525469 37.4744 0 36.8285 0ZM11.0659 3.57237V4.88114C11.0659 4.90155 11.0492 4.91825 11.0288 4.91825H8.52763C8.50722 4.91825 8.49052 4.90155 8.49052 4.88114V3.57237H11.0659ZM13.4879 14.7547H6.06854C6.04813 14.7547 6.03143 14.738 6.03143 14.7176V8.49063H13.5251V14.7176C13.525 14.738 13.5084 14.7547 13.4879 14.7547ZM13.525 7.37734H6.03143V3.57237H7.37724V4.88114C7.37724 5.51549 7.89328 6.03154 8.52763 6.03154H11.0288C11.6631 6.03154 12.1792 5.51549 12.1792 4.88114V3.57237H13.5251L13.525 7.37734ZM30.7389 4.88114C30.7389 4.90155 30.7222 4.91825 30.7017 4.91825H24.5119C24.4915 4.91825 24.4748 4.90155 24.4748 4.88114V3.57237H30.7389V4.88114Z" fill="#B98A2E"/>
<path d="M32.5251 27.2414C32.8326 27.2414 33.0818 26.9923 33.0818 26.6848V26.0699C33.0818 25.7625 32.8326 25.5133 32.5251 25.5133C32.2177 25.5133 31.9685 25.7625 31.9685 26.0699V26.6848C31.9685 26.9923 32.2177 27.2414 32.5251 27.2414Z" fill="#B98A2E"/>
<path d="M32.5251 30.9301C32.8326 30.9301 33.0818 30.6809 33.0818 30.3734V29.7586C33.0818 29.4511 32.8326 29.202 32.5251 29.202C32.2177 29.202 31.9685 29.4511 31.9685 29.7586V30.3734C31.9685 30.6809 32.2177 30.9301 32.5251 30.9301Z" fill="#B98A2E"/>
<path d="M31.9314 13.4089C32.5658 13.4089 33.0818 12.8928 33.0818 12.2585V8.52771C33.0818 7.89336 32.5658 7.37732 31.9314 7.37732H23.2825C22.6481 7.37732 22.1321 7.89336 22.1321 8.52771V12.2585C22.1321 12.8928 22.6481 13.4089 23.2825 13.4089H31.9314ZM29.5094 8.4906V9.7993C29.5094 9.81971 29.4927 9.83641 29.4723 9.83641H25.7416C25.7212 9.83641 25.7045 9.81971 25.7045 9.7993V8.4906H29.5094ZM23.2454 12.2585V8.52771C23.2454 8.5073 23.2621 8.4906 23.2825 8.4906H24.5912V9.7993C24.5912 10.4336 25.1072 10.9497 25.7416 10.9497H29.4723C30.1067 10.9497 30.6227 10.4336 30.6227 9.7993V8.4906H31.9315C31.9519 8.4906 31.9686 8.5073 31.9686 8.52771V12.2585C31.9686 12.2789 31.9519 12.2956 31.9315 12.2956H23.2825C23.2621 12.2956 23.2454 12.2789 23.2454 12.2585Z" fill="#B98A2E"/>
</g>
<defs>
<clipPath id="clip0_212_823">
<rect width="38" height="38" fill="white"/>
</clipPath>
</defs>
</svg>
