<svg width="80" height="80" viewBox="0 0 80 80" fill="none" xmlns="http://www.w3.org/2000/svg">
<mask id="mask0_1161_1311" style="mask-type:luminance" maskUnits="userSpaceOnUse" x="0" y="0" width="80" height="80">
<path d="M0 7.62939e-06H80V80H0V7.62939e-06Z" fill="white"/>
</mask>
<g mask="url(#mask0_1161_1311)">
<path d="M54.6875 56.1261V72.8125C54.6875 73.6719 53.9844 74.375 53.125 74.375H3.125C2.26562 74.375 1.5625 73.6719 1.5625 72.8125V7.18735C1.5625 6.32797 2.26562 5.62501 3.125 5.62501H53.125C53.9844 5.62501 54.6875 6.32813 54.6875 7.18735V46.9455" stroke="#B98A2E" stroke-width="2" stroke-miterlimit="2.613" stroke-linecap="round" stroke-linejoin="round"/>
<path d="M29.6873 65.9229H9.375" stroke="#B98A2E" stroke-width="2" stroke-miterlimit="2.613" stroke-linecap="round" stroke-linejoin="round"/>
<path d="M19.5312 59.4424H9.375" stroke="#B98A2E" stroke-width="2" stroke-miterlimit="2.613" stroke-linecap="round" stroke-linejoin="round"/>
<path d="M29.6873 52.9619H9.375" stroke="#B98A2E" stroke-width="2" stroke-miterlimit="2.613" stroke-linecap="round" stroke-linejoin="round"/>
<path d="M19.5312 46.4814H9.375" stroke="#B98A2E" stroke-width="2" stroke-miterlimit="2.613" stroke-linecap="round" stroke-linejoin="round"/>
<path d="M29.6873 40H9.375" stroke="#B98A2E" stroke-width="2" stroke-miterlimit="2.613" stroke-linecap="round" stroke-linejoin="round"/>
<path d="M19.5312 33.5195H9.375" stroke="#B98A2E" stroke-width="2" stroke-miterlimit="2.613" stroke-linecap="round" stroke-linejoin="round"/>
<path d="M29.6867 27.0391H16.4062" stroke="#B98A2E" stroke-width="2" stroke-miterlimit="2.613" stroke-linecap="round" stroke-linejoin="round"/>
<path d="M19.5312 20.5586H9.375" stroke="#B98A2E" stroke-width="2" stroke-miterlimit="2.613" stroke-linecap="round" stroke-linejoin="round"/>
<path d="M29.6873 14.0781H9.375" stroke="#B98A2E" stroke-width="2" stroke-miterlimit="2.613" stroke-linecap="round" stroke-linejoin="round"/>
<path d="M48.4358 14.078L41.9552 20.5586L38.7148 17.3183" stroke="#B98A2E" stroke-width="2" stroke-miterlimit="2.613" stroke-linecap="round" stroke-linejoin="round"/>
<path d="M67.3789 32.6876L73.5095 38.8184" stroke="#B98A2E" stroke-width="2" stroke-miterlimit="22.926" stroke-linecap="round" stroke-linejoin="round"/>
<path d="M73.5315 28.2472C74.1796 27.5991 75.2402 27.599 75.8884 28.2472L77.9509 30.3096C78.5991 30.9579 78.5988 32.0186 77.9509 32.6666L47.6412 62.9763L40.2754 65.9229L43.2218 58.5569L73.5315 28.2472Z" stroke="#B98A2E" stroke-width="2" stroke-miterlimit="22.926" stroke-linecap="round" stroke-linejoin="round"/>
<path d="M48.4358 27.0388L41.9552 33.5195L38.7148 30.2791" stroke="#B98A2E" stroke-width="2" stroke-miterlimit="2.613" stroke-linecap="round" stroke-linejoin="round"/>
<path d="M48.4358 40.0008L41.9552 46.4814L38.7148 43.2411" stroke="#B98A2E" stroke-width="2" stroke-miterlimit="2.613" stroke-linecap="round" stroke-linejoin="round"/>
<path d="M9.375 27.0391H9.37609" stroke="#B98A2E" stroke-width="2" stroke-miterlimit="2.613" stroke-linecap="round" stroke-linejoin="round"/>
</g>
</svg>
