<svg width="77" height="76" viewBox="0 0 77 76" fill="none" xmlns="http://www.w3.org/2000/svg">
<g clip-path="url(#clip0_684_210)">
<path d="M24.2946 14.0332H17.6902C14.6048 14.0332 12.1035 16.5321 12.1035 19.6176V65.9338C12.1035 69.0193 14.6048 71.5182 17.6902 71.5182H51.5488" stroke="#B98A2E" stroke-width="2" stroke-miterlimit="10"/>
<path d="M49.2285 14.0332H55.8329C58.9183 14.0332 61.4172 16.5321 61.4172 19.6176V56.9302" stroke="#B98A2E" stroke-width="2" stroke-miterlimit="10"/>
<path d="M49.2307 12.6616V15.2997C49.2307 16.2825 48.4333 17.0777 47.4504 17.0777H26.0749C25.092 17.0777 24.2969 16.2825 24.2969 15.2997V12.6616C24.2969 11.1734 25.5046 9.96563 26.9929 9.96563H32.3199C32.1159 9.43478 32.0047 8.85988 32.0047 8.25717C32.0047 5.62841 34.135 3.49805 36.7638 3.49805C39.3925 3.49805 41.5229 5.62841 41.5229 8.25717C41.5229 8.85988 41.4116 9.43478 41.2076 9.96563H46.5347C48.0229 9.96563 49.2307 11.1734 49.2307 12.6616Z" stroke="#B98A2E" stroke-width="2" stroke-miterlimit="10"/>
<path d="M58.2343 74.4628C63.235 74.4628 67.2889 70.4089 67.2889 65.4081C67.2889 60.4074 63.235 56.3535 58.2343 56.3535C53.2336 56.3535 49.1797 60.4074 49.1797 65.4081C49.1797 70.4089 53.2336 74.4628 58.2343 74.4628Z" stroke="#B98A2E" stroke-width="2" stroke-miterlimit="10"/>
<path d="M52.8145 65.4548L56.396 69.034L63.6471 61.7852" stroke="#B98A2E" stroke-width="2" stroke-miterlimit="10"/>
<path d="M23.5977 28.4355H52.2451" stroke="#B98A2E" stroke-width="2" stroke-miterlimit="10"/>
<path d="M23.5977 34.707H52.2451" stroke="#B98A2E" stroke-width="2" stroke-miterlimit="10"/>
<path d="M23.5977 40.9746H52.2451" stroke="#B98A2E" stroke-width="2" stroke-miterlimit="10"/>
<path d="M23.5977 47.2422H52.2451" stroke="#B98A2E" stroke-width="2" stroke-miterlimit="10"/>
<path d="M23.5977 53.5117H52.2451" stroke="#B98A2E" stroke-width="2" stroke-miterlimit="10"/>
<path d="M21.7423 28.4355H20.2285" stroke="#B98A2E" stroke-width="2" stroke-miterlimit="10"/>
<path d="M21.7423 34.707H20.2285" stroke="#B98A2E" stroke-width="2" stroke-miterlimit="10"/>
<path d="M21.7423 40.9746H20.2285" stroke="#B98A2E" stroke-width="2" stroke-miterlimit="10"/>
<path d="M21.7423 47.2422H20.2285" stroke="#B98A2E" stroke-width="2" stroke-miterlimit="10"/>
<path d="M21.7423 53.5117H20.2285" stroke="#B98A2E" stroke-width="2" stroke-miterlimit="10"/>
</g>
<defs>
<clipPath id="clip0_684_210">
<rect width="60.7143" height="75" fill="white" transform="translate(8 1)"/>
</clipPath>
</defs>
</svg>
