<svg width="39" height="39" viewBox="0 0 39 39" fill="none" xmlns="http://www.w3.org/2000/svg">
<g clip-path="url(#clip0_91_1645)">
<path d="M15.9722 20.3178C15.6091 20.1911 14.8322 20.1235 13.6247 20.1235H11.978C11.9273 20.1235 11.8936 20.1658 11.8936 20.208V23.5942C11.8936 23.6449 11.9273 23.6786 11.978 23.6786H13.9371C14.8913 23.6786 15.4909 23.6533 15.7527 23.5942C16.1496 23.5182 16.462 23.3409 16.7153 23.0622C16.9602 22.7835 17.0869 22.4035 17.0869 21.9306C17.0869 21.5338 16.994 21.196 16.7998 20.9173C16.6056 20.6471 16.3353 20.4444 15.9722 20.3178Z" fill="#B98A2E"/>
<path d="M25.3109 17.666C24.7282 17.666 24.2469 17.8687 23.8669 18.2825C23.5038 18.6793 23.3433 19.0593 23.3096 19.6082C23.3096 19.6589 23.3518 19.7096 23.4109 19.7096H27.2025C27.2616 19.7096 27.3038 19.6589 27.3038 19.6082C27.3038 19.11 27.0673 18.6202 26.7042 18.2487C26.3158 17.8602 25.8598 17.666 25.3109 17.666Z" fill="#B98A2E"/>
<path d="M11.9777 17.911H13.219C14.2492 17.911 14.891 17.8941 15.1443 17.8688C15.6003 17.8181 15.955 17.6577 16.2083 17.3959C16.4701 17.1341 16.5968 16.7879 16.5968 16.3573C16.5968 15.9435 16.487 15.6141 16.259 15.3524C16.0394 15.099 15.7017 14.9386 15.2625 14.8879C15.0008 14.8541 14.2492 14.8457 12.9994 14.8457H11.9692C11.9185 14.8457 11.8848 14.8879 11.8848 14.9301V17.835C11.8932 17.8688 11.9354 17.911 11.9777 17.911Z" fill="#B98A2E"/>
<path d="M19.4004 0.270508C8.90395 0.270508 0.400391 8.77406 0.400391 19.2705C0.400391 29.767 8.90395 38.2705 19.4004 38.2705C29.8968 38.2705 38.4004 29.767 38.4004 19.2705C38.4004 8.77406 29.8968 0.270508 19.4004 0.270508ZM22.6008 13.4185C22.6008 13.2074 22.7782 13.0301 22.9893 13.0301H27.4817C27.6928 13.0301 27.8702 13.2074 27.8702 13.4185V14.0687C27.8702 14.2798 27.6928 14.4572 27.4817 14.4572H22.9893C22.7782 14.4572 22.6008 14.2798 22.6008 14.0687V13.4185ZM19.4004 23.8305C19.1217 24.4047 18.7417 24.8607 18.2688 25.1985C17.7875 25.5447 17.1964 25.7474 16.4955 25.8318C16.0564 25.8825 14.9924 25.9078 13.7088 25.9247H9.33461C8.87861 25.9247 8.84483 25.8825 8.84483 25.8403V12.7007C8.84483 12.6501 8.87861 12.6163 9.33461 12.6163H14.4857C15.1191 12.6163 15.8875 12.6585 16.4026 12.7514C16.9093 12.8358 17.3653 13.0216 17.7706 13.3003C18.1759 13.579 18.5053 13.9505 18.7755 14.415C19.0457 14.8794 19.1808 15.3945 19.1808 15.9687C19.1808 16.5936 19.0119 17.1678 18.6826 17.683C18.3871 18.1474 17.9986 18.5021 17.5257 18.7638C17.4582 18.7976 17.4666 18.899 17.5342 18.9158C18.2351 19.1607 18.7839 19.5407 19.1808 20.0558C19.6115 20.6216 19.8226 21.2972 19.8226 22.0656C19.8142 22.6736 19.6791 23.2563 19.4004 23.8305ZM29.9559 21.4492C29.9559 21.4998 29.9137 21.5505 29.8546 21.5505H23.3608C23.3017 21.5505 23.2595 21.6012 23.2595 21.6518C23.2933 22.3696 23.5044 22.8172 23.9013 23.2225C24.3151 23.6532 24.8217 23.7714 25.4382 23.7714C26.0039 23.7714 26.8737 23.6025 27.1271 22.6567C27.1355 22.6145 27.1862 22.5807 27.2368 22.5892L29.7026 22.6145C29.7617 22.623 29.7871 22.6821 29.7786 22.7496C29.7448 23.5856 28.9004 24.7003 28.1911 25.1732C27.4564 25.6714 26.5275 25.9163 25.4213 25.9163C23.6648 25.9163 22.3644 25.359 21.5199 24.2443C20.8528 23.3492 20.5235 22.2261 20.5235 20.8665C20.5235 19.2452 20.9626 17.9701 21.8324 17.0496C22.7106 16.1292 23.8168 15.6732 25.1511 15.6732C26.6542 15.6732 27.8364 16.1545 28.7062 17.1172C29.5506 18.063 29.9813 18.8567 29.9559 21.4492Z" fill="#B98A2E"/>
</g>
<defs>
<clipPath id="clip0_91_1645">
<rect width="38" height="38" fill="white" transform="translate(0.400391 0.270508)"/>
</clipPath>
</defs>
</svg>
