<svg width="39" height="39" viewBox="0 0 39 39" fill="none" xmlns="http://www.w3.org/2000/svg">
<g clip-path="url(#clip0_91_1643)">
<path d="M38.4004 19.2705C38.4004 8.77598 29.8949 0.270508 19.4004 0.270508C8.90586 0.270508 0.400391 8.77598 0.400391 19.2705C0.400391 29.765 8.90586 38.2705 19.4004 38.2705C19.5117 38.2705 19.623 38.2705 19.7344 38.2631V23.4787H15.6523V18.7213H19.7344V15.2182C19.7344 11.1584 22.2133 8.94668 25.8352 8.94668C27.5719 8.94668 29.0637 9.07285 29.4941 9.13223V13.3775H27.0004C25.0336 13.3775 24.6477 14.3127 24.6477 15.6857V18.7139H29.3605L28.7445 23.4713H24.6477V37.5357C32.5891 35.2572 38.4004 27.9467 38.4004 19.2705Z" fill="#B98A2E"/>
</g>
<defs>
<clipPath id="clip0_91_1643">
<rect width="38" height="38" fill="white" transform="translate(0.400391 0.270508)"/>
</clipPath>
</defs>
</svg>
