<svg width="76" height="76" viewBox="0 0 76 76" fill="none" xmlns="http://www.w3.org/2000/svg">
<g clip-path="url(#clip0_684_207)">
<path d="M18.2628 8.96875C9.82195 14.9533 4.31445 24.8004 4.31445 35.936C4.31445 50.1749 13.3227 62.3112 25.9524 66.9524" stroke="#B98A2E" stroke-width="2" stroke-linejoin="round"/>
<path d="M26.377 4.76455C29.8092 3.55559 33.5019 2.90039 37.3481 2.90039C55.5922 2.90039 70.3849 17.6903 70.3849 35.9372C70.3849 50.2693 61.256 62.474 48.4947 67.0467" stroke="#B98A2E" stroke-width="2" stroke-linejoin="round"/>
<path d="M26.2079 74.1476H48.4956V51.6598L37.7493 23.2012L25.4102 51.6598L26.2079 74.1476Z" stroke="#B98A2E" stroke-width="2" stroke-linejoin="round"/>
<path d="M32.707 62.1387V74.0803" stroke="#B98A2E" stroke-width="2" stroke-linejoin="round"/>
<path d="M25.4102 51.659L32.9737 54.8417L37.4833 49.5371L42.1273 54.5786L48.4956 51.659" stroke="#B98A2E" stroke-width="2" stroke-linejoin="round"/>
<path d="M41.9941 74.0805V54.5781" stroke="#B98A2E" stroke-width="2" stroke-linejoin="round"/>
<path d="M32.6641 54.7969V59.1749" stroke="#B98A2E" stroke-width="2" stroke-linejoin="round"/>
<path d="M34.0332 32.0215C34.0332 32.0215 37.5148 33.8802 41.0978 32.0215" stroke="#B98A2E" stroke-width="2" stroke-linejoin="round"/>
<path d="M15.886 10.7598C15.886 10.7598 14.3974 21.2758 20.1023 23.2661C21.5607 31.8906 24.8778 36.932 31.3804 38.1246" stroke="#B98A2E" stroke-width="2" stroke-linejoin="round"/>
<path d="M8.56055 52.8518L15.0604 44.0957C15.0604 44.0957 20.2335 49.9322 25.5409 50.8615" stroke="#B98A2E" stroke-width="2" stroke-linejoin="round"/>
<path d="M31.9102 3.09961C31.9102 3.09961 35.6248 10.5288 33.6345 13.3169C37.7466 16.1021 44.3808 14.3778 45.1786 22.7364C52.8737 16.2365 61.3639 13.5828 61.3639 13.5828" stroke="#B98A2E" stroke-width="2" stroke-linejoin="round"/>
<path d="M65.874 19.1543C65.874 19.1543 58.7106 19.1543 56.9836 21.4105C55.2565 23.6667 53.9324 27.9104 49.8202 28.1763C45.7081 28.4422 45.9713 33.0862 48.2275 35.0764" stroke="#B98A2E" stroke-width="2" stroke-linejoin="round"/>
<path d="M52.209 37.4614C52.209 37.4614 58.3114 35.3396 58.8432 39.3201C59.375 43.3007 55.6577 43.6982 58.4457 45.5568C61.2337 47.4155 63.3556 55.7741 62.0287 57.8959" stroke="#B98A2E" stroke-width="2" stroke-linejoin="round"/>
<path d="M48.7598 55.9043C48.7598 55.9043 56.9867 56.6993 57.7818 62.141" stroke="#B98A2E" stroke-width="2" stroke-linejoin="round"/>
</g>
<defs>
<clipPath id="clip0_684_207">
<rect width="70" height="74.4872" fill="white" transform="translate(3 1)"/>
</clipPath>
</defs>
</svg>
