<svg width="39" height="39" viewBox="0 0 39 39" fill="none" xmlns="http://www.w3.org/2000/svg">
<g clip-path="url(#clip0_91_1651)">
<path d="M23.0371 19.2705C23.0371 21.2791 21.4089 22.9072 19.4004 22.9072C17.3918 22.9072 15.7637 21.2791 15.7637 19.2705C15.7637 17.262 17.3918 15.6338 19.4004 15.6338C21.4089 15.6338 23.0371 17.262 23.0371 19.2705Z" fill="#B98A2E"/>
<path d="M27.9056 12.836C27.7308 12.3623 27.4519 11.9335 27.0895 11.5815C26.7375 11.2191 26.309 10.9402 25.835 10.7654C25.4506 10.6161 24.873 10.4384 23.8093 10.39C22.6587 10.3375 22.3137 10.3262 19.4006 10.3262C16.4872 10.3262 16.1422 10.3372 14.9918 10.3897C13.9281 10.4384 13.3503 10.6161 12.9662 10.7654C12.4921 10.9402 12.0634 11.2191 11.7117 11.5815C11.3493 11.9335 11.0704 12.362 10.8953 12.836C10.746 13.2204 10.5683 13.7982 10.5198 14.8619C10.4674 16.0123 10.4561 16.3573 10.4561 19.2707C10.4561 22.1838 10.4674 22.5288 10.5198 23.6795C10.5683 24.7432 10.746 25.3207 10.8953 25.7051C11.0704 26.1791 11.349 26.6076 11.7114 26.9596C12.0634 27.322 12.4919 27.6009 12.9659 27.7757C13.3503 27.9253 13.9281 28.103 14.9918 28.1514C16.1422 28.2039 16.4869 28.2149 19.4003 28.2149C22.3139 28.2149 22.659 28.2039 23.8091 28.1514C24.8728 28.103 25.4506 27.9253 25.835 27.7757C26.7865 27.4087 27.5385 26.6566 27.9056 25.7051C28.0549 25.3207 28.2326 24.7432 28.2813 23.6795C28.3338 22.5288 28.3448 22.1838 28.3448 19.2707C28.3448 16.3573 28.3338 16.0123 28.2813 14.8619C28.2329 13.7982 28.0552 13.2204 27.9056 12.836ZM19.4006 24.8728C16.3063 24.8728 13.7979 22.3647 13.7979 19.2704C13.7979 16.1761 16.3063 13.668 19.4006 13.668C22.4946 13.668 25.0029 16.1761 25.0029 19.2704C25.0029 22.3647 22.4946 24.8728 19.4006 24.8728ZM25.2244 14.7558C24.5014 14.7558 23.9152 14.1696 23.9152 13.4465C23.9152 12.7235 24.5014 12.1373 25.2244 12.1373C25.9475 12.1373 26.5337 12.7235 26.5337 13.4465C26.5334 14.1696 25.9475 14.7558 25.2244 14.7558Z" fill="#B98A2E"/>
<path d="M19.4004 0.270508C8.90858 0.270508 0.400391 8.7787 0.400391 19.2705C0.400391 29.7623 8.90858 38.2705 19.4004 38.2705C29.8922 38.2705 38.4004 29.7623 38.4004 19.2705C38.4004 8.7787 29.8922 0.270508 19.4004 0.270508ZM30.2447 23.7686C30.192 24.93 30.0073 25.7229 29.7377 26.417C29.1709 27.8825 28.0124 29.041 26.5468 29.6078C25.8531 29.8774 25.0599 30.0618 23.8987 30.1149C22.7353 30.1679 22.3636 30.1807 19.4007 30.1807C16.4374 30.1807 16.0661 30.1679 14.9023 30.1149C13.7412 30.0618 12.948 29.8774 12.2542 29.6078C11.526 29.3338 10.8667 28.9044 10.3216 28.3493C9.76674 27.8045 9.33737 27.1449 9.0634 26.417C8.79378 25.7232 8.6091 24.93 8.55634 23.7689C8.5027 22.6051 8.49023 22.2335 8.49023 19.2705C8.49023 16.3076 8.5027 15.9359 8.55605 14.7724C8.60881 13.611 8.7932 12.8181 9.06282 12.1241C9.33679 11.3961 9.76645 10.7365 10.3216 10.1918C10.8664 9.63657 11.526 9.2072 12.2539 8.93323C12.948 8.6636 13.7409 8.47922 14.9023 8.42616C16.0658 8.37311 16.4374 8.36035 19.4004 8.36035C22.3633 8.36035 22.735 8.37311 23.8985 8.42645C25.0599 8.47922 25.8528 8.6636 26.5468 8.93294C27.2748 9.20691 27.9344 9.63657 28.4794 10.1918C29.0343 10.7368 29.464 11.3961 29.7377 12.1241C30.0076 12.8181 30.192 13.611 30.245 14.7724C30.2981 15.9359 30.3105 16.3076 30.3105 19.2705C30.3105 22.2335 30.2981 22.6051 30.2447 23.7686Z" fill="#B98A2E"/>
</g>
<defs>
<clipPath id="clip0_91_1651">
<rect width="38" height="38" fill="white" transform="translate(0.400391 0.270508)"/>
</clipPath>
</defs>
</svg>
