<svg width="76" height="76" viewBox="0 0 76 76" fill="none" xmlns="http://www.w3.org/2000/svg">
<path d="M56.5013 46.5907C54.7162 48.8518 48.7877 57.8137 52.9165 72.8352C33.2125 73.0174 26.8833 72.4126 26.8833 72.4126L26.7036 64.6408C26.7036 64.6408 23.6288 60.4829 18.7496 64.2789C13.8679 68.075 9.34807 60.6626 10.9753 55.6012C8.62431 55.0596 10.373 52.8276 12.1799 52.4681C9.40878 52.0455 7.84227 50.6588 10.6134 48.4292C5.73173 47.7055 3.9855 46.3818 6.63521 43.1881C9.28735 39.9919 13.1441 37.0993 13.2048 34.0877C13.2656 31.0737 11.699 15.6466 21.341 9.74245C28.5397 5.33193 34.5628 5.6938 37.1518 6.16011" stroke="#B98A2E" stroke-width="2" stroke-miterlimit="10"/>
<path d="M48.6712 30.2388C50.4465 28.7597 51.7095 26.3601 52.0495 23.5671C52.1126 23.0692 52.1442 22.5568 52.1442 22.0346C52.1442 20.3807 51.826 18.8263 51.2602 17.4614C50.5947 15.8511 49.5892 14.5056 48.3651 13.5876C47.1289 14.5153 46.1137 15.8778 45.4483 17.5124C44.897 18.8651 44.5861 20.4025 44.5861 22.0346C44.5861 22.4766 44.6079 22.9138 44.6541 23.3412C44.9625 26.314 46.3129 28.8665 48.2218 30.3699H48.2243L48.2267 30.3748C48.2607 30.382 48.2923 30.3893 48.3263 30.3966H48.3287C48.3433 30.3966 48.3554 30.3893 48.37 30.3869C48.3894 30.382 48.4089 30.3796 48.4283 30.3723C48.5327 30.1732 48.625 29.9667 48.71 29.753M48.0227 3.35547C35.6242 3.35547 25.5742 13.4054 25.5742 25.8039C25.5742 38.2025 35.6242 48.25 48.0227 48.25C60.4212 48.25 70.4687 38.2 70.4687 25.8039C70.4687 13.4079 60.4188 3.35547 48.0227 3.35547Z" stroke="#B98A2E" stroke-width="2" stroke-miterlimit="10"/>
<path d="M48.7138 29.752C48.6288 29.9657 48.5365 30.1721 48.4321 30.3713C48.4126 30.3786 48.3932 30.381 48.3738 30.3858C48.3592 30.3883 48.347 30.3931 48.3325 30.3956H48.33C48.296 30.3883 48.2645 30.381 48.2305 30.3737C48.2426 30.3858 48.2572 30.398 48.2718 30.4077L48.3665 30.4806C48.3665 30.4806 48.3738 30.4757 48.3762 30.4733C48.4296 30.432 48.4831 30.3931 48.5341 30.3494H48.5365C48.5826 30.313 48.6288 30.2741 48.6725 30.2377" stroke="#B98A2E" stroke-width="2" stroke-miterlimit="10"/>
<path d="M39.7263 26.8945C43.3281 26.8945 46.4757 28.4125 48.1733 30.6736C46.4757 32.9347 43.3281 34.4526 39.7263 34.4526C36.1246 34.4526 32.977 32.9347 31.2793 30.6736C32.977 28.4125 36.1221 26.8945 39.7263 26.8945Z" stroke="#B98A2E" stroke-width="2" stroke-miterlimit="10"/>
<path d="M57.0837 26.8945C60.6855 26.8945 63.8331 28.4125 65.5308 30.6736C63.8331 32.9347 60.6855 34.4526 57.0837 34.4526C53.482 34.4526 50.3344 32.9347 48.6367 30.6736C50.3344 28.4125 53.4795 26.8945 57.0837 26.8945Z" stroke="#B98A2E" stroke-width="2" stroke-miterlimit="10"/>
<path d="M48.6703 30.2383C48.6655 30.265 48.6655 30.2893 48.6655 30.316C48.6606 30.3719 48.6606 30.4277 48.6582 30.4836C48.6922 30.4933 48.7262 30.5054 48.7602 30.5127" stroke="#B98A2E" stroke-width="2" stroke-miterlimit="10"/>
<path d="M52.0508 23.5654C52.4515 23.189 52.8838 22.8344 53.3477 22.5041C54.3265 21.807 55.3635 21.2752 56.4103 20.9108H56.4127C58.5014 20.1798 60.6265 20.1094 62.4213 20.6801C62.3655 22.8757 61.3381 25.2145 59.5045 27.1308" stroke="#B98A2E" stroke-width="2" stroke-miterlimit="10"/>
<path d="M48.3738 30.3867C48.3738 30.3867 48.3762 30.3989 48.3738 30.4061C48.3762 30.428 48.3786 30.4523 48.3762 30.4742C48.3786 30.5033 48.3811 30.5324 48.3811 30.5616C48.3009 30.5859 48.2208 30.6102 48.1406 30.632" stroke="#B98A2E" stroke-width="2" stroke-miterlimit="10"/>
<path d="M44.6541 23.3413C44.3505 23.0741 44.0299 22.8215 43.6923 22.5811C42.5897 21.7966 41.4142 21.2235 40.2338 20.8592C38.2763 20.2544 36.3018 20.2253 34.6211 20.7596C34.6721 22.9163 35.6654 25.2114 37.436 27.1058H37.4384" stroke="#B98A2E" stroke-width="2" stroke-miterlimit="10"/>
<path d="M40.2335 20.8586C39.9421 18.7845 40.2432 16.7929 41.069 15.1973C42.6039 15.5009 44.1292 16.3023 45.448 17.5118" stroke="#B98A2E" stroke-width="2" stroke-miterlimit="10"/>
<path d="M47.8555 30.2814H47.8579C47.9793 30.3154 48.1008 30.347 48.2246 30.3713H48.2271V30.3737C48.2611 30.381 48.2926 30.3883 48.3266 30.3956H48.3291C48.3436 30.4004 48.3558 30.4028 48.3704 30.4053C48.3825 30.4077 48.3971 30.4101 48.4092 30.4126C48.4165 30.398 48.4238 30.3858 48.4286 30.3713C48.5331 30.1721 48.6254 29.9657 48.7104 29.752" stroke="#B98A2E" stroke-width="2" stroke-miterlimit="10"/>
<path d="M56.4086 20.912H56.411C56.7171 18.8185 56.4183 16.8075 55.5853 15.1973C54.0698 15.496 52.5664 16.2805 51.2598 17.4608" stroke="#B98A2E" stroke-width="2" stroke-miterlimit="10"/>
<path d="M49.0047 30.2207C48.893 30.2571 48.7788 30.2887 48.6671 30.3154C48.6234 30.3276 48.5797 30.3397 48.536 30.3494H48.5335C48.4995 30.3567 48.4655 30.3664 48.4315 30.3713C48.4121 30.3786 48.3927 30.381 48.3732 30.3859C48.3587 30.3883 48.3465 30.3931 48.3319 30.3956H48.3295C48.3101 30.4004 48.2907 30.4029 48.2712 30.4077C48.2615 30.4101 48.2542 30.4101 48.2445 30.4126C48.2372 30.398 48.2299 30.3883 48.2275 30.3737H48.2251L48.2227 30.3689" stroke="#B98A2E" stroke-width="2" stroke-miterlimit="10"/>
</svg>
