<svg width="16" height="15" viewBox="0 0 16 15" fill="none" xmlns="http://www.w3.org/2000/svg">
<path d="M7.40429 0.883536C7.62495 0.436436 8.2625 0.436436 8.48316 0.883535L10.2959 4.55661C10.3836 4.73416 10.5529 4.85722 10.7489 4.88569L14.8023 5.47469C15.2957 5.54639 15.4928 6.15273 15.1357 6.50075L12.2026 9.35985C12.0608 9.49805 11.9961 9.69716 12.0296 9.8923L12.722 13.9294C12.8063 14.4208 12.2905 14.7956 11.8492 14.5635L8.22365 12.6575C8.04841 12.5653 7.83905 12.5653 7.6638 12.6575L4.03825 14.5635C3.59694 14.7956 3.08115 14.4208 3.16543 13.9294L3.85785 9.8923C3.89132 9.69716 3.82663 9.49805 3.68485 9.35985L0.751719 6.50075C0.394689 6.15274 0.591703 5.54639 1.08511 5.47469L5.13859 4.88569C5.33452 4.85722 5.5039 4.73416 5.59152 4.55661L7.40429 0.883536Z" fill="#B98A2E"/>
</svg>
