<svg width="76" height="76" viewBox="0 0 76 76" fill="none" xmlns="http://www.w3.org/2000/svg">
<path d="M17.0059 41.1136C17.739 35.4225 20.7838 30.4535 25.1672 27.1797" stroke="#B98A2E" stroke-width="2" stroke-miterlimit="10"/>
<path d="M49.9199 27.1797C54.2351 30.3984 57.2513 35.2596 58.046 40.8384" stroke="#B98A2E" stroke-width="2" stroke-miterlimit="10"/>
<path d="M45.9987 62.6973H45.9965C43.4162 63.8531 40.5564 64.496 37.5468 64.496C34.7045 64.496 31.9987 63.9258 29.5352 62.8888" stroke="#B98A2E" stroke-width="2" stroke-miterlimit="10"/>
<path d="M37.5452 34.9282C45.1446 34.9282 51.3052 28.7676 51.3052 21.1682C51.3052 13.5688 45.1446 7.4082 37.5452 7.4082C29.9457 7.4082 23.7852 13.5688 23.7852 21.1682C23.7852 28.7676 29.9457 34.9282 37.5452 34.9282Z" stroke="#B98A2E" stroke-width="2" stroke-miterlimit="10"/>
<path d="M18.4006 68.563C26.0001 68.563 32.1606 62.4024 32.1606 54.803C32.1606 47.2035 26.0001 41.043 18.4006 41.043C10.8012 41.043 4.64062 47.2035 4.64062 54.803C4.64062 62.4024 10.8012 68.563 18.4006 68.563Z" stroke="#B98A2E" stroke-width="2" stroke-miterlimit="10"/>
<path d="M57.1038 68.3266C64.7032 68.3266 70.8638 62.1661 70.8638 54.5666C70.8638 46.9672 64.7032 40.8066 57.1038 40.8066C49.5043 40.8066 43.3438 46.9672 43.3438 54.5666C43.3438 62.1661 49.5043 68.3266 57.1038 68.3266Z" stroke="#B98A2E" stroke-width="2" stroke-miterlimit="10"/>
<path d="M37.7699 21.5984C39.9318 21.5984 41.6844 19.8459 41.6844 17.684C41.6844 15.5221 39.9318 13.7695 37.7699 13.7695C35.608 13.7695 33.8555 15.5221 33.8555 17.684C33.8555 19.8459 35.608 21.5984 37.7699 21.5984Z" stroke="#B98A2E" stroke-width="2" stroke-miterlimit="10"/>
<path d="M37.6575 35.0085C41.1715 35.0085 44.0202 32.1598 44.0202 28.6458C44.0202 25.1318 41.1715 22.2832 37.6575 22.2832C34.1436 22.2832 31.2949 25.1318 31.2949 28.6458C31.2949 32.1598 34.1436 35.0085 37.6575 35.0085Z" stroke="#B98A2E" stroke-width="2" stroke-miterlimit="10"/>
<path d="M18.4007 57.3237V47.6543C18.4007 47.6543 13.1653 56.7887 10.6797 57.5153C13.0882 60.9167 14.0812 65.3508 13.6607 67.7197" stroke="#B98A2E" stroke-width="2" stroke-linejoin="round"/>
<path d="M18.3537 60.2289C19.2243 60.2289 19.93 59.5231 19.93 58.6525C19.93 57.7819 19.2243 57.0762 18.3537 57.0762C17.4831 57.0762 16.7773 57.7819 16.7773 58.6525C16.7773 59.5231 17.4831 60.2289 18.3537 60.2289Z" stroke="#B98A2E" stroke-width="2" stroke-miterlimit="10"/>
<path d="M18.4004 47.6543C18.4004 47.6543 23.6358 56.7887 26.1214 57.5153C23.7129 60.9167 22.7199 65.3508 23.1404 67.7197" stroke="#B98A2E" stroke-width="2" stroke-linejoin="round"/>
<path d="M13.7383 64.9863H23.0643" stroke="#B98A2E" stroke-width="2" stroke-miterlimit="10"/>
<path d="M64.5005 60.7205L65.3129 60.2516V51.1171L57.4025 46.5488L49.4922 51.1171V60.2516L57.4025 64.8199L59.5579 63.576L64.5005 60.7205Z" stroke="#B98A2E" stroke-width="2" stroke-miterlimit="10"/>
<path d="M57.4023 55.6211V64.8194" stroke="#B98A2E" stroke-width="2" stroke-miterlimit="10"/>
<path d="M49.4922 51.1172L57.4025 55.6217L65.3129 51.1172" stroke="#B98A2E" stroke-width="2" stroke-miterlimit="10"/>
<path d="M60.8542 48.3848L53.5449 53.2745V57.211" stroke="#B98A2E" stroke-width="2" stroke-miterlimit="10"/>
</svg>
