<svg width="77" height="76" viewBox="0 0 77 76" fill="none" xmlns="http://www.w3.org/2000/svg">
<path d="M66.3922 70.521H9.60547V33.4651L38.047 14.6504L66.3922 33.4651V70.521Z" stroke="#B98A2E" stroke-width="2" stroke-miterlimit="10"/>
<path d="M41.7732 52.4376C41.7732 55.2486 40.2524 57.7057 37.9901 59.0294C35.7256 57.7057 34.207 55.2486 34.207 52.4376C34.207 49.6266 35.7279 47.1694 37.9901 45.8457C40.2546 47.1694 41.7732 49.6243 41.7732 52.4376Z" stroke="#B98A2E" stroke-width="2" stroke-miterlimit="10"/>
<path d="M35.3045 56.7367C37.2912 58.7235 37.9542 61.5367 37.289 64.0722C34.7513 64.7374 31.9403 64.0744 29.9535 62.0877C27.9645 60.0987 27.3038 57.2877 27.969 54.7522C30.5068 54.087 33.3178 54.7477 35.3045 56.7367Z" stroke="#B98A2E" stroke-width="2" stroke-miterlimit="10"/>
<path d="M40.6466 56.7367C38.6598 58.7235 37.9968 61.5367 38.6621 64.0722C41.1998 64.7374 44.0108 64.0744 45.9975 62.0877C47.9865 60.0987 48.6473 57.2877 47.982 54.7522C45.4443 54.087 42.6333 54.7477 40.6466 56.7367Z" stroke="#B98A2E" stroke-width="2" stroke-miterlimit="10"/>
<path d="M37.9727 59.2441V71.1511" stroke="#B98A2E" stroke-width="2" stroke-miterlimit="10"/>
<path d="M36.7484 28.375H33.1602V31.9632H36.7484V28.375Z" stroke="#B98A2E" stroke-width="2" stroke-miterlimit="10"/>
<path d="M42.8148 28.375H39.2266V31.9632H42.8148V28.375Z" stroke="#B98A2E" stroke-width="2" stroke-miterlimit="10"/>
<path d="M36.7484 34.3164H33.1602V37.9046H36.7484V34.3164Z" stroke="#B98A2E" stroke-width="2" stroke-miterlimit="10"/>
<path d="M42.8148 34.3164H39.2266V37.9046H42.8148V34.3164Z" stroke="#B98A2E" stroke-width="2" stroke-miterlimit="10"/>
<path d="M5.02148 33.417L38.0502 6.35742L70.9781 33.417" stroke="#B98A2E" stroke-width="2" stroke-miterlimit="10"/>
</svg>
