<svg width="77" height="76" viewBox="0 0 77 76" fill="none" xmlns="http://www.w3.org/2000/svg">
<path d="M46.0423 56.78C43.2431 57.3912 40.3349 57.7124 37.3527 57.7124C23.1055 57.7124 10.5694 50.3835 3.31055 39.2898C10.5694 28.1961 23.1055 20.8672 37.3527 20.8672C51.5998 20.8672 64.1359 28.1961 71.3948 39.2898C70.3125 40.9425 69.1134 42.5134 67.8092 43.9869" stroke="#B98A2E" stroke-width="2" stroke-miterlimit="10"/>
<path d="M46.0423 56.78C43.2431 57.3912 40.3349 57.7124 37.3527 57.7124C23.1055 57.7124 10.5694 50.3835 3.31055 39.2898C10.5694 28.1961 23.1055 20.8672 37.3527 20.8672C51.5998 20.8672 64.1359 28.1961 71.3948 39.2898C70.3125 40.9425 69.1134 42.5134 67.8092 43.9869" stroke="#B98A2E" stroke-width="2" stroke-miterlimit="10"/>
<path d="M52.8171 42.5474C53.037 41.4963 53.1538 40.4062 53.1538 39.2888C53.1538 30.5622 46.0799 23.4883 37.3533 23.4883C28.6267 23.4883 21.5547 30.5622 21.5547 39.2888C21.5547 48.0154 28.6286 55.0874 37.3533 55.0874C40.5185 55.0874 43.4676 54.155 45.9397 52.553" stroke="#B98A2E" stroke-width="2" stroke-miterlimit="10"/>
<path d="M37.3525 44.8436C40.4207 44.8436 42.9081 42.3563 42.9081 39.288C42.9081 36.2197 40.4207 33.7324 37.3525 33.7324C34.2842 33.7324 31.7969 36.2197 31.7969 39.288C31.7969 42.3563 34.2842 44.8436 37.3525 44.8436Z" stroke="#B98A2E" stroke-width="2" stroke-miterlimit="10"/>
<path d="M9.05855 29.7343L2.05273 22.7285" stroke="#B98A2E" stroke-width="2" stroke-miterlimit="10"/>
<path d="M18.2267 22.471L14.7656 13.8203" stroke="#B98A2E" stroke-width="2" stroke-miterlimit="10"/>
<path d="M28.7805 18.3174L27.3965 8.11133" stroke="#B98A2E" stroke-width="2" stroke-miterlimit="10"/>
<path d="M39.5059 16.9345L39.6772 6.72852" stroke="#B98A2E" stroke-width="2" stroke-miterlimit="10"/>
<path d="M48.5 18.6642L53.1699 8.80273" stroke="#B98A2E" stroke-width="2" stroke-miterlimit="10"/>
<path d="M59.7441 22.8149L65.4535 15.377" stroke="#B98A2E" stroke-width="2" stroke-miterlimit="10"/>
<path d="M68.5664 29.3881L74.9668 24.5449" stroke="#B98A2E" stroke-width="2" stroke-miterlimit="10"/>
<path d="M63.8112 50.1533V49.4077C63.8112 47.0718 61.9172 45.1797 59.5832 45.1797H58.9194C56.5835 45.1797 54.6914 47.0737 54.6914 49.4077V50.1533C54.6914 52.4892 56.5854 54.3813 58.9194 54.3813H59.5832C61.9191 54.3813 63.8112 56.2753 63.8112 58.6093V59.2731C63.8112 61.609 61.9172 63.5011 59.5832 63.5011H58.9194C56.5835 63.5011 54.6914 61.607 54.6914 59.2731" stroke="#B98A2E" stroke-width="2" stroke-miterlimit="10"/>
<path d="M59.2518 67.7713C66.6699 67.7713 72.6834 61.7578 72.6834 54.3397C72.6834 46.9217 66.6699 40.9082 59.2518 40.9082C51.8338 40.9082 45.8203 46.9217 45.8203 54.3397C45.8203 61.7578 51.8338 67.7713 59.2518 67.7713Z" stroke="#B98A2E" stroke-width="2" stroke-miterlimit="10"/>
<path d="M59.252 45.1557V40.9062" stroke="#B98A2E" stroke-width="2" stroke-miterlimit="10"/>
<path d="M58.9199 63.502V67.7923" stroke="#B98A2E" stroke-width="2" stroke-miterlimit="10"/>
</svg>
