<svg width="62" height="61" viewBox="0 0 62 61" fill="none" xmlns="http://www.w3.org/2000/svg">
<rect x="13.9502" y="17.7556" width="36.8071" height="25.1808" fill="white"/>
<path d="M58.5167 16.558C57.8606 14.1482 55.9375 12.2486 53.4986 11.5998C49.0432 10.3954 31.2212 10.3954 31.2212 10.3954C31.2212 10.3954 13.3999 10.3954 8.94444 11.5541C6.55253 12.2023 4.5825 14.1486 3.9264 16.558C2.75391 20.9594 2.75391 30.0873 2.75391 30.0873C2.75391 30.0873 2.75391 39.2613 3.9264 43.6167C4.5832 46.0261 6.50562 47.9257 8.94479 48.5746C13.4468 49.7793 31.2219 49.7793 31.2219 49.7793C31.2219 49.7793 49.0432 49.7793 53.4986 48.6206C55.9378 47.9721 57.8606 46.0725 58.5174 43.663C59.6895 39.2613 59.6895 30.1337 59.6895 30.1337C59.6895 30.1337 59.7364 20.9594 58.5167 16.558ZM25.5471 38.52V21.6547L40.367 30.0873L25.5471 38.52Z" fill="#FF2132"/>
</svg>
